<svg xmlns="http://www.w3.org/2000/svg" width="54.848" height="44.545" viewBox="0 0 54.848 44.545"><defs><clipPath id="a"><rect width="36.312" height="38.171" transform="translate(-4 -5)" fill="none" stroke="#0a9ae5"/></clipPath><style>.e{fill:#fff}</style></defs><g transform="rotate(-6.02 115.392 -177.224)" clip-path="url(#a)"><path d="M14.156-1.483a15.75 15.75 0 012.2.154 1.5 1.5 0 01-.42 2.97 12.74 12.74 0 00-1.78-.124 1.5 1.5 0 010-3zM7.822.017a1.5 1.5 0 01.677 2.839 12.6 12.6 0 00-1.529.914 1.5 1.5 0 01-1.717-2.453A15.618 15.618 0 017.147.182a1.494 1.494 0 01.675-.165zm15.5 1.89a1.494 1.494 0 01.977.362 15.708 15.708 0 011.568 1.552 1.5 1.5 0 11-2.255 1.978 12.7 12.7 0 00-1.267-1.254 1.5 1.5 0 01.978-2.638zM1.167 7.176a1.5 1.5 0 011.384 2.078 12.506 12.506 0 00-.563 1.687 1.5 1.5 0 01-2.905-.748 15.515 15.515 0 01.7-2.094 1.5 1.5 0 011.384-.923zm26.9 3.277a1.5 1.5 0 011.481 1.275 15.727 15.727 0 01.177 2.2 1.5 1.5 0 11-3 .03 12.715 12.715 0 00-.143-1.777 1.5 1.5 0 011.485-1.726zM.776 16.941a1.5 1.5 0 011.426 1.036 12.521 12.521 0 00.67 1.649A1.5 1.5 0 01.18 20.951a15.53 15.53 0 01-.831-2.046 1.5 1.5 0 011.427-1.964zm25.325 3.084a1.5 1.5 0 011.271 2.292 15.667 15.667 0 01-1.3 1.784 1.502 1.502 0 11-2.3-1.931 12.656 12.656 0 001.048-1.441 1.5 1.5 0 011.281-.703zm-19.259 4.58a1.493 1.493 0 01.78.22 12.565 12.565 0 001.582.817 1.5 1.5 0 01-1.183 2.757 15.578 15.578 0 01-1.962-1.013 1.5 1.5 0 01.783-2.781zm11.532 1.406a1.5 1.5 0 01.449 2.932 15.532 15.532 0 01-2.149.509 1.5 1.5 0 01-.482-2.961 12.523 12.523 0 001.732-.41 1.5 1.5 0 01.45-.07z" fill="#0a9ae5"/></g><g transform="rotate(83.98 582.034 -562.11)"><ellipse cx="16.25" cy="17.334" rx="16.25" ry="17.334" transform="translate(1084.16 41)" fill="#07a6e2"/><path class="e" d="M1100.41 42.5a14.165 14.165 0 00-10.4 4.6 16.325 16.325 0 00-4.35 11.234 16.325 16.325 0 004.354 11.23 14.042 14.042 0 0020.793 0 16.325 16.325 0 004.353-11.23 16.325 16.325 0 00-4.353-11.234 14.165 14.165 0 00-10.4-4.6m0-1.5c8.978 0 16.253 7.761 16.253 17.334s-7.275 17.333-16.25 17.333-16.25-7.76-16.25-17.333S1091.435 41 1100.41 41z"/><path class="e" d="M1092.439 55.897l7.129 7.737a.288.288 0 00.486-.128l1.656-4.734a.293.293 0 01.429-.175l6.536 4.176c.292.187.605-.245.369-.509l-8.228-9.225a.288.288 0 00-.488.125l-1.558 4.448a.3.3 0 01-.391.2l-5.611-2.448c-.296-.128-.553.29-.329.533z"/></g></svg>