<svg xmlns="http://www.w3.org/2000/svg" width="38.731" height="38.261" viewBox="0 0 38.731 38.261"><defs><clipPath id="clip-path"><path id="長方形_102" d="M0 0h38.731v38.261H0z" class="cls-1"/></clipPath><style>.cls-1{fill:#0186c1}</style></defs><g id="ico_flow-estimate" clip-path="url(#clip-path)"><path id="パス_69" d="M33.239 0a.948.948 0 00-.709.414L18.7 21.317a.947.947 0 00-.147.664l.546 3.645a.944.944 0 001.072.8c.027 0 .053-.009.08-.015l3.512-.841a.946.946 0 00.576-.383L35.217 8.756l1.254.856-5.727 8.369a.945.945 0 101.55 1.062l6.272-9.151a.945.945 0 00-.249-1.313l-2.066-1.4 1.918-2.893a.944.944 0 00-.25-1.3q-2.029-1.411-4.06-2.82a.948.948 0 00-.62-.166m.339 2.259c.832.579 1.662 1.163 2.494 1.741l-1.387 2.1-2.509-1.712zM.945 3.443A.945.945 0 000 4.388v32.928a.945.945 0 00.945.945h28.4a.945.945 0 00.945-.945V22.763a.945.945 0 00-1.89-.027v13.635H1.89V5.332h23.866a.945.945 0 00.027-1.89H.945zm30.183 2.524l2.51 1.712-10.672 16.147-2.141.517-.339-2.288zM5.712 13.376a.946.946 0 00.089 1.89h10.8a.945.945 0 00.027-1.89H5.711m0 4.4a.945.945 0 00.089 1.887h8.87a.945.945 0 10.027-1.889H5.8a.642.642 0 00-.089 0m0 4.4a.945.945 0 00.089 1.888h8.87a.945.945 0 10.027-1.889H5.711m0 4.4a.946.946 0 00.089 1.89h10.8a.945.945 0 00.027-1.89H5.711" class="cls-1"/></g></svg>