<svg xmlns="http://www.w3.org/2000/svg" id="ico_flow-make" width="35.724" height="33.342" viewBox="0 0 35.724 33.342"><defs><clipPath id="clip-path"><path id="長方形_104" d="M0 0h35.724v33.342H0z" class="cls-1"/></clipPath><style>.cls-1{fill:#0197ce;stroke:#fff;stroke-width:.7px}</style></defs><g id="グループ_144" clip-path="url(#clip-path)"><path id="パス_71" d="M3.572 28.58h19.75l4.415 4.414a1.188 1.188 0 00.842.349 1.169 1.169 0 00.456-.091 1.188 1.188 0 00.734-1.1V28.58h2.383a3.572 3.572 0 003.571-3.573V3.573A3.572 3.572 0 0032.151 0H3.572A3.572 3.572 0 000 3.573v21.434a3.573 3.573 0 003.572 3.573m28.579-2.38h-3.573a1.191 1.191 0 00-1.191 1.19v1.889l-2.73-2.731a1.192 1.192 0 00-.842-.348H3.572a1.191 1.191 0 01-1.191-1.191V9.527h30.96v15.48a1.19 1.19 0 01-1.19 1.191M20.736 7.145L25.5 2.382h3.776l-4.763 4.763zm-3.368 0h-3.777l4.763-4.763h3.777zm-7.144 0H6.447l4.763-4.763h3.777zm23.118 0h-5.46l4.679-4.68a1.183 1.183 0 01.781 1.108zM3.572 2.382h4.27L3.079 7.145h-.7V3.573a1.191 1.191 0 011.193-1.191" class="cls-1" transform="translate(0 -.001)"/><path id="パス_72" d="M25.719 20.547l-7.146-3.572a1.189 1.189 0 00-1.6.533 1.174 1.174 0 00-.125.533v7.146a1.189 1.189 0 001.722 1.065l7.146-3.572a1.191 1.191 0 000-2.132m-6.486 2.711v-3.292l3.291 1.646z" class="cls-1" transform="translate(-3.751 -3.751)"/></g></svg>