<svg xmlns="http://www.w3.org/2000/svg" width="47.147" height="35.935" viewBox="0 0 47.147 35.935"><defs><clipPath id="clip-path"><path id="長方形_103" d="M0 0h47.147v35.935H0z" class="cls-1"/></clipPath><style>.cls-1{fill:#0186c1}</style></defs><g id="ico_flow-order"><g id="グループ_143" clip-path="url(#clip-path)"><path id="パス_70" d="M47.093 23.534L41.365 9.155a.775.775 0 00-.981-.442l-6.244 2.234a.774.774 0 00-.468.99.215.215 0 00.011.029l.41 1.017-2.593.851c-.965-.372-4.361-1.687-5.318-2.119-1.527-.686-2.924-.141-4.544.9-1.142-.874-2.211-.879-3.658-.061a147.903 147.903 0 00-3.3 1.954l-1.224-.69.563-1.172a.775.775 0 00-.347-1.024L8.059 8.754a.775.775 0 00-1.042.337L.084 22.784a.774.774 0 00.337 1.038l5.9 3.037a.775.775 0 00.354.086.766.766 0 00.247-.042.775.775 0 00.451-.4l.45-.938.712.487a7.683 7.683 0 00-.363.852.77.77 0 00-.037.239c0 1.95 2.006 3.027 2.851 3.4a3.143 3.143 0 001.771 1.935 1.893 1.893 0 00.542.077 2.153 2.153 0 00.821-.174 3.1 3.1 0 001.258 1.387 2.451 2.451 0 001.612.243 3.423 3.423 0 001.492 1.423 1.931 1.931 0 00.733.147 1.952 1.952 0 00.761-.155 3.98 3.98 0 001.65-1.353c.387.309.979.774 1.636 1.3a2.815 2.815 0 001.756.567 3.45 3.45 0 001.527-.358 2.8 2.8 0 001.471-1.711 3.61 3.61 0 00.814-.106 3.53 3.53 0 002.3-1.8 3.162 3.162 0 00.446.035 3.65 3.65 0 003.388-2.355c.034 0 .066.006.1.006a3.1 3.1 0 002.179-.806 2.546 2.546 0 00.587-2.954l1.244-.551.455 1.128a.775.775 0 00.718.485.757.757 0 00.277-.052l6.129-2.348a.775.775 0 00.444-1v-.006zM6.322 25.117l-4.51-2.323 6.234-12.308 4.25 2.168zm3.368 2.145a7.984 7.984 0 01.889-1.633.923.923 0 011.03-.077.464.464 0 01.311.578.53.53 0 01-.021.055c-.294.953-.595 1.982-.8 2.687-.623-.348-1.338-.913-1.412-1.61m3.513 3.726c-.3-.087-.583-.551-.753-.956a30.638 30.638 0 011.884-2.818 1.071 1.071 0 011.37-.3c.309.214.136.641-.062.962-.007.009-.007.02-.012.03s-.029.041-.039.063c-.136.309-1.025 1.739-1.652 2.72-.2.164-.5.363-.736.294m3.661 1.464a.945.945 0 01-.745-.049 1.948 1.948 0 01-.756-1.061c.456-.717 1.439-2.278 1.641-2.732a.581.581 0 01.34-.187 1.085 1.085 0 01.852.217.826.826 0 01.318.979zm2.517 1.54c-.4.169-.839-.42-1.084-.831l1.566-2.139a1.225 1.225 0 01.893.35 1.256 1.256 0 01.078.966 3.057 3.057 0 01-1.453 1.655m16.766-6.251a1.833 1.833 0 01-1.593.29c-.007 0-.012-.006-.019-.007h-.009a.829.829 0 01-.209-.093c-.456-.3-2.843-2.6-4.24-3.975a.774.774 0 00-1.084 1.1c.619.611 3.754 3.684 4.467 4.159a2.117 2.117 0 01-1.214 1.105 1.505 1.505 0 01-1.393-.093c-1-.891-3.716-3.608-3.748-3.634a.774.774 0 00-1.1 1.094c.11.109 2.622 2.62 3.716 3.609a2.019 2.019 0 01-1.265.958 1.393 1.393 0 01-1.127-.1l-2.745-2.75a.774.774 0 00-1.1 1.1l2.75 2.751a1.849 1.849 0 00.287.223 1.269 1.269 0 01-.667.719 1.649 1.649 0 01-1.626-.033c-.813-.651-1.529-1.213-1.881-1.49a2.68 2.68 0 00-.341-2.21 2.57 2.57 0 00-1.9-.968 2.306 2.306 0 00-1.025-2.123 2.687 2.687 0 00-1.692-.5 1.933 1.933 0 00-.8-1.217 2.624 2.624 0 00-3.108.232 2.008 2.008 0 00-1.187-1.717 2.407 2.407 0 00-2.963.557l-.828-.573 4.285-8.941 1.529.863a.774.774 0 00.783-.014c.024-.014 2.353-1.434 3.645-2.167.647-.365 1.058-.486 1.471-.341a5.619 5.619 0 00-2.146 3.549 3.67 3.67 0 00.129 2.8 2.692 2.692 0 001.867 1.118 2.148 2.148 0 001.764-.412 3.549 3.549 0 001.373-2.117l.815-.532a51.28 51.28 0 007.305 3.35c.722.7 4.009 3.857 4.8 4.747a1.1 1.1 0 01.168 1.546 1.078 1.078 0 01-.137.142zm.737-3.132c-1.328-1.383-4.489-4.413-4.638-4.556a.775.775 0 00-.339-.189 52.584 52.584 0 01-7.558-3.484.775.775 0 00-.8.031l-1.49.976a.774.774 0 00-.345.581 2 2 0 01-.786 1.379.667.667 0 01-.546.155c-.453-.112-.735-.2-.857-.4-.1-.155-.217-.58.045-1.626a4.459 4.459 0 012.543-3.334l.332-.212c1.685-1.084 2.413-1.116 3.1-.8 1.152.518 5.47 2.179 5.651 2.25a.779.779 0 00.519.013l2.954-.968 3.819 9.473zm3.793.565l-5.256-13.036 4.782-1.712 5.162 12.955zM22.8 5.28V.775a.774.774 0 111.548 0V5.28a.774.774 0 11-1.548 0m-9.615 0a.774.774 0 11.961-1.214l.025.02 3.476 2.87a.774.774 0 01-.987 1.194zM29.4 8.047a.774.774 0 01.1-1.09l3.476-2.87a.774.774 0 111.01 1.174l-.025.02-3.472 2.869a.773.773 0 01-1.09-.1" class="cls-1"/></g></g></svg>