<svg xmlns="http://www.w3.org/2000/svg" width="39.843" height="27.093" viewBox="0 0 39.843 27.093"><defs><clipPath id="clip-path"><path id="長方形_100" d="M0 0h39.843v27.093H0z" class="cls-1"/></clipPath><style>.cls-1{fill:#0186c1}</style></defs><g id="ico_flow-contact" transform="translate(71 10)"><g id="グループ_140" clip-path="url(#clip-path)" transform="translate(-71 -10)"><path id="パス_61" d="M39.839 26.374c.006-.063.006-25.587 0-25.655A.8.8 0 0039.045 0C-.951 0 .762-.006.652.014A.8.8 0 000 .8v25.574a.8.8 0 00.793.718h38.321a.8.8 0 00.72-.715m-1.59-2l-10.82-10.831L38.249 2.721zM37.123 1.594l-17.2 17.2-5.813-5.811L2.721 1.594zM1.594 2.721L12.42 13.546 1.594 24.372zM2.721 25.5l10.826-10.827 5.811 5.812a.8.8 0 001.127 0l5.815-5.812L37.123 25.5z" class="cls-1"/></g></g></svg>