<svg id="グループ_9584" data-name="グループ 9584" xmlns="http://www.w3.org/2000/svg" width="34.743" height="30.279" viewBox="0 0 34.743 30.279"><defs><style>.cls-1{fill:#fff}</style></defs><path id="パス_12" data-name="パス 12" class="cls-1" d="M391.878 326.737a51.051 51.051 0 00-12.339-1.426 53.374 53.374 0 00-12.63 1.452 5.349 5.349 0 00-4.04 3.87 33.507 33.507 0 00-.849 7.628 33.974 33.974 0 00.868 7.746 5.349 5.349 0 004.017 3.853 51.049 51.049 0 0012.339 1.426 53.372 53.372 0 0012.63-1.452 5.35 5.35 0 004.04-3.871 33.505 33.505 0 00.849-7.628 33.978 33.978 0 00-.868-7.746 5.349 5.349 0 00-4.017-3.852zm2.3 18.812a3.91 3.91 0 01-2.952 2.829 50.254 50.254 0 01-11.9 1.366 48.013 48.013 0 01-11.606-1.339 3.91 3.91 0 01-2.936-2.815 31.825 31.825 0 01-.812-7.257 31.392 31.392 0 01.794-7.143 3.909 3.909 0 012.952-2.829 50.234 50.234 0 0111.9-1.366 47.112 47.112 0 0111.606 1.339 3.91 3.91 0 012.936 2.815 31.835 31.835 0 01.812 7.258 31.389 31.389 0 01-.794 7.142z" transform="translate(-362.02 -325.311)"/><path id="パス_13" data-name="パス 13" class="cls-1" d="M394.981 338.734l-6.075 5.6a.226.226 0 00.1.381l3.717 1.3a.23.23 0 01.137.337l-3.279 5.131c-.147.229.192.475.4.29l7.243-6.461a.226.226 0 00-.1-.383l-3.492-1.223a.233.233 0 01-.153-.307l1.917-4.406c.104-.233-.224-.435-.415-.259z" transform="translate(-375.624 -332.087)"/><ellipse id="楕円形_1" data-name="楕円形 1" class="cls-1" cx="8.755" cy="1.382" rx="8.755" ry="1.382" transform="translate(8.659 27.515)"/></svg>