<svg xmlns="http://www.w3.org/2000/svg" id="ico_flow-meeting" width="42.888" height="36.995" viewBox="0 0 42.888 36.995"><defs><clipPath id="clip-path"><path id="長方形_101" d="M0 0h42.888v36.995H0z" class="cls-1"/></clipPath><style>.cls-1{fill:#0186c1}</style></defs><g id="グループ_141" clip-path="url(#clip-path)"><path id="パス_62" d="M13.5 8.6h12.9a.864.864 0 000-1.729H13.5a.864.864 0 100 1.729" class="cls-1" transform="translate(-4.685 -2.549)"/><path id="パス_63" d="M8.962 15.472H24.71a.865.865 0 000-1.729H8.962a.865.865 0 000 1.729" class="cls-1" transform="translate(-3.004 -5.098)"/><path id="パス_64" d="M15.633 20.615H8.962a.865.865 0 000 1.729h6.671a.865.865 0 000-1.729" class="cls-1" transform="translate(-3.004 -7.647)"/><path id="パス_65" d="M42.023 12.1H27.665V.865A.864.864 0 0026.8 0H.864A.865.865 0 000 .865v17.291a.866.866 0 00.865.865H5.5l3.074 5.438a.864.864 0 001.5 0l3.074-5.438h2.068v11.232a.864.864 0 00.864.864h13.653l3.074 5.44a.864.864 0 001.5 0l3.074-5.44h4.637a.864.864 0 00.865-.864V12.962a.864.864 0 00-.865-.864m-29.367 5.194a.864.864 0 00-.753.439l-2.57 4.546-2.57-4.546a.862.862 0 00-.752-.439H1.728V1.729h24.208V12.1h-9.849a.864.864 0 00-.864.864v4.33zm28.508 12.1h-4.277a.863.863 0 00-.752.438l-2.57 4.547-2.57-4.547a.863.863 0 00-.752-.438H16.952V13.826h24.207z" class="cls-1"/><path id="パス_66" d="M36.831 26.966a.864.864 0 00.865.864h12.9a.865.865 0 100-1.729H37.7a.865.865 0 00-.865.865" class="cls-1" transform="translate(-13.662 -9.682)"/><path id="パス_67" d="M48.91 32.974H33.162a.865.865 0 000 1.729H48.91a.865.865 0 100-1.729" class="cls-1" transform="translate(-11.98 -12.231)"/><path id="パス_68" d="M48.91 39.846H33.162a.865.865 0 000 1.729H48.91a.865.865 0 100-1.729" class="cls-1" transform="translate(-11.98 -14.78)"/></g></svg>