<svg xmlns="http://www.w3.org/2000/svg" width="353.951" height="230" viewBox="0 0 353.951 230"><defs><clipPath id="clip-path"><path id="長方形_130" fill="none" stroke="#0a9ae5" d="M0 0h82.099v82.099H0z"/></clipPath><clipPath id="clip-path-2"><rect id="長方形_124" width="195.188" height="109.658" class="cls-2" rx="12"/></clipPath><clipPath id="clip-path-3"><path id="長方形_123" d="M0 0h195.188v109.659H0z" class="cls-2"/></clipPath><clipPath id="clip-path-4"><path id="長方形_122" d="M0 0h195.188v109.658H0z" class="cls-2"/></clipPath><clipPath id="clip-path-5"><path id="長方形_129" d="M0 0h195.053v116.831H0z" class="cls-2"/></clipPath><clipPath id="clip-path-6"><path id="長方形_128" d="M0 0h195.053v116.83H0z" class="cls-2"/></clipPath><clipPath id="clip-path-7"><path id="長方形_125" d="M0 0h8.508v8.672H0z" class="cls-2"/></clipPath><clipPath id="clip-path-8"><path id="長方形_126" d="M0 0h195.051v15.84H0z" class="cls-2"/></clipPath><clipPath id="clip-path-9"><path id="長方形_127" d="M0 0h195.051v14.18H0z" class="cls-2"/></clipPath><filter id="長方形_131" width="213" height="135" x="88" y="41" filterUnits="userSpaceOnUse"><feOffset dy="3"/><feGaussianBlur result="blur" stdDeviation="3"/><feFlood flood-opacity=".161"/><feComposite in2="blur" operator="in"/><feComposite in="SourceGraphic"/></filter><style>.cls-2{fill:none}.cls-12{fill:#fff}.cls-24{fill:#3d95d1}</style></defs><g id="img-feature01" transform="translate(-200 -1228)"><rect id="長方形_56" width="350" height="230" fill="#f7fdff" rx="30" transform="translate(200 1228)"/><path id="パス_12012" fill="#1891c6" d="M-41.652-10.858Q-42.9-14.774-42.9-30.26t1.246-19.4q3.74-11.84 17.179-11.84 13.35 0 17.266 11.837 1.246 3.916 1.246 19.4t-1.246 19.4Q-11.125.979-24.475.979q-13.439 0-17.177-11.837zm9.79-1.869q1.691 4.806 7.387 4.806T-17-12.727q.8-2.4.8-17.533t-.8-17.533q-1.78-4.806-7.476-4.806t-7.387 4.806q-.8 2.4-.8 17.533t.801 17.533zM21.983-.89v-47.7h-.178l-9.256 6.5q-.979.623-.979-.534v-9.078a1.6 1.6 0 01.623-1.246l9.7-7.031a2.6 2.6 0 011.6-.534h7.565a.787.787 0 01.89.89V-.89a.787.787 0 01-.89.89h-8.185a.787.787 0 01-.89-.89z" opacity=".8" transform="translate(522 1303)"/><g id="グループ_202" clip-path="url(#clip-path)" transform="translate(264.541 1246.9)"><path id="パス_231" fill="none" stroke="#0a9ae5" stroke-dasharray="1.996 7.984" stroke-linecap="round" stroke-miterlimit="10" stroke-width="3" d="M81.049 41.049a40 40 0 11-40-40 40 40 0 0140 40z"/></g><g id="グループ_187" transform="translate(279 1299)"><g id="グループ_185" clip-path="url(#clip-path-2)" transform="translate(3)"><g id="グループ_184"><g id="グループ_183" clip-path="url(#clip-path-3)"><g id="グループ_182" opacity=".1"><g id="グループ_181"><g id="グループ_180" clip-path="url(#clip-path-4)"><path id="パス_221" fill="#177bac" d="M195.188 109.659H0V1.244A1.244 1.244 0 011.243 0h192.7a1.244 1.244 0 011.243 1.244z"/></g></g></g></g></g></g></g><g filter="url(#長方形_131)" transform="translate(200 1228)"><rect id="長方形_131-2" width="195" height="117" class="cls-12" rx="12" transform="translate(97 47)"/></g><g id="グループ_201" transform="translate(337 1275)"><g id="グループ_200" clip-path="url(#clip-path-5)" transform="translate(-40)"><g id="グループ_199" transform="translate(0 .001)"><g id="グループ_198" clip-path="url(#clip-path-6)"><g id="グループ_191" transform="translate(93.272 102.647)" style="isolation:isolate" opacity=".13"><g id="グループ_190"><g id="グループ_189" clip-path="url(#clip-path-7)"><path id="パス_223" fill="#d1e3ed" d="M76.485 79.492a4.337 4.337 0 11-4.253 4.336 4.3 4.3 0 014.253-4.336" transform="translate(-72.232 -79.493)"/></g></g></g><path id="パス_224" fill="#8dc6bf" d="M153.436 92.8h-17.545a1.7 1.7 0 010-3.4h15.844V75.26H123.93a1.7 1.7 0 010-3.4h29.506a1.7 1.7 0 011.7 1.7V91.1a1.7 1.7 0 01-1.7 1.7" transform="translate(35.604 20.93)"/><path id="パス_225" d="M9.076.44h176.9a9.074 9.074 0 019.075 9.075v98.113a9.074 9.074 0 01-9.075 9.075H9.076A9.074 9.074 0 010 107.628V9.515A9.074 9.074 0 019.076.44" class="cls-12" transform="translate(0 .128)"/><g id="グループ_194" transform="translate(0 100.989)" style="isolation:isolate" opacity=".68"><g id="グループ_193"><g id="グループ_192" clip-path="url(#clip-path-8)"><path id="パス_226" d="M185.976 87.283H9.075A9.074 9.074 0 010 78.208v6.764a9.074 9.074 0 009.075 9.075h176.9a9.074 9.074 0 009.075-9.075v-6.764a9.074 9.074 0 01-9.075 9.075" class="cls-12" transform="translate(0 -78.209)"/></g></g></g><g id="グループ_197" transform="translate(0 -.001)" style="isolation:isolate" opacity=".81"><g id="グループ_196"><g id="グループ_195" clip-path="url(#clip-path-9)"><path id="パス_227" fill="#f8fdff" d="M185.976 0H9.075A9.074 9.074 0 000 9.075v5.1A9.075 9.075 0 019.075 5.1h176.9a9.075 9.075 0 019.075 9.075v-5.1A9.074 9.074 0 00185.976 0"/></g></g></g><path id="パス_228" d="M183.533 12.6v80.131a5.564 5.564 0 01-5.564 5.563H12.842a5.563 5.563 0 01-5.563-5.563V12.6a5.564 5.564 0 015.563-5.56h165.127a5.565 5.565 0 015.564 5.564" class="cls-24" transform="translate(2.12 2.05)"/><path id="パス_229" d="M76.349 79.968a3.723 3.723 0 11-3.65 3.723 3.688 3.688 0 013.65-3.723" class="cls-24" transform="translate(21.176 23.293)"/></g></g></g></g><g id="グループ_249"><g id="グループ_203" transform="translate(-89 -42)"><g id="楕円形_11" fill="#fff" stroke="#0a9ae5" transform="translate(377 1314)"><circle cx="17.5" cy="17.5" r="17.5" stroke="none"/><circle cx="17.5" cy="17.5" r="17" class="cls-2"/></g></g><path id="パス_230" fill="#018bc4" d="M396.732 338.753l-7.806 7.193a.291.291 0 00.129.489l4.776 1.672a.3.3 0 01.177.433l-4.213 6.594c-.189.294.247.61.514.372l9.308-8.3a.291.291 0 00-.126-.493L395 345.141a.3.3 0 01-.2-.394l2.464-5.662c.136-.299-.286-.558-.532-.332z" transform="translate(-88.857 941.937)"/></g><path id="パス_232" fill="#f4fafc" d="M410.363 338.9l-21.282 19.61a.793.793 0 00.352 1.334l13.021 4.559a.806.806 0 01.482 1.18l-11.487 17.977c-.514.8.673 1.664 1.4 1.015l25.375-22.634a.793.793 0 00-.344-1.343l-12.234-4.284a.815.815 0 01-.537-1.075l6.718-15.436c.355-.811-.794-1.519-1.464-.903z" opacity=".39" transform="translate(-9.242 967.33)"/></g></svg>