<svg xmlns="http://www.w3.org/2000/svg" width="93.525" height="97.359" viewBox="0 0 93.525 97.359"><defs><clipPath id="he7xnc0cla"><path fill="none" stroke="#0a9ae5" d="M0 0h93.525v93.525H0z"/></clipPath></defs><g clip-path="url(#he7xnc0cla)" transform="translate(0 3.834)"><path fill="none" stroke="#0a9ae5" stroke-dasharray="1.996 7.984" stroke-linecap="round" stroke-miterlimit="10" stroke-width="3" d="M92.329 46.762A45.567 45.567 0 1146.762 1.195a45.567 45.567 0 0145.567 45.567z"/></g><g fill="#fff" stroke="#0a9ae5" transform="translate(64.524)"><ellipse cx="14.5" cy="15" rx="14.5" ry="15" stroke="none"/><ellipse cx="14.5" cy="15" fill="none" rx="14" ry="14.5"/></g><path fill="#018bc4" d="M81.003 7.802l-6.445 5.939a.24.24 0 00.107.4l3.944 1.381a.244.244 0 01.146.357l-3.479 5.444c-.156.243.2.5.424.307l7.685-6.855a.24.24 0 00-.1-.407l-3.705-1.3a.247.247 0 01-.163-.326l2.035-4.675c.102-.238-.246-.452-.449-.265z"/></svg>