<svg xmlns="http://www.w3.org/2000/svg" width="364.186" height="230" viewBox="0 0 364.186 230"><defs><clipPath id="clip-path"><rect id="長方形_124" width="197.806" height="111.129" class="cls-1" rx="12"/></clipPath><clipPath id="clip-path-2"><path id="長方形_123" d="M0 0h197.806v111.129H0z" class="cls-1"/></clipPath><clipPath id="clip-path-4"><path id="長方形_118" fill="none" stroke="#0a9ae5" d="M0 0h78.31v78.31H0z"/></clipPath><clipPath id="clip-path-5"><rect id="長方形_119" width="194.651" height="109.117" class="cls-1" rx="12"/></clipPath><filter id="長方形_121" width="212" height="126" x="89" y="39" filterUnits="userSpaceOnUse"><feOffset dy="3"/><feGaussianBlur result="blur" stdDeviation="3"/><feFlood flood-opacity=".161"/><feComposite in2="blur" operator="in"/><feComposite in="SourceGraphic"/></filter><style>.cls-1{fill:none}.cls-3{fill:#fff}.cls-7{clip-path:url(#clip-path-2)}.cls-14{fill:#3d95d1}.cls-15{fill:#76beea}</style></defs><g id="img-feature02" transform="translate(-200 -1544)"><path id="長方形_120" d="M0 0h180v101H0z" class="cls-3" transform="translate(299 1604)"/><rect id="長方形_57" width="350" height="230" fill="#f7fdff" rx="30" transform="translate(200 1544)"/><path id="パス_12013" fill="#1891c6" d="M-41.652-10.858Q-42.9-14.774-42.9-30.26t1.246-19.4q3.74-11.84 17.179-11.84 13.35 0 17.266 11.837 1.246 3.916 1.246 19.4t-1.246 19.4Q-11.125.979-24.475.979q-13.439 0-17.177-11.837zm9.79-1.869q1.691 4.806 7.387 4.806T-17-12.727q.8-2.4.8-17.533t-.8-17.533q-1.78-4.806-7.476-4.806t-7.387 4.806q-.8 2.4-.8 17.533t.801 17.533zM6.408-.89v-6.675a1.565 1.565 0 01.445-1.157l21.36-26.611q3.916-4.806 3.916-9.256a8.044 8.044 0 00-2.136-5.741 7.676 7.676 0 00-5.874-2.27 7.831 7.831 0 00-5.652 2 8.954 8.954 0 00-2.536 5.563q-.178.89-.979.712l-7.832-1.6a.8.8 0 01-.712-1.068 15.725 15.725 0 015.3-10.235Q16.376-61.5 24.386-61.5q8.277 0 13.038 4.806a16.492 16.492 0 014.762 12.1q0 7.3-5.7 14.151L18.868-9.078v.178H41.3a.787.787 0 01.89.89v7.12a.787.787 0 01-.89.89h-34a.787.787 0 01-.892-.89z" opacity=".8" transform="translate(522 1614)"/><g id="グループ_179" transform="translate(-24.883 -34.411)"><g id="グループ_186" transform="translate(303.882 1638.411)"><g id="グループ_185" clip-path="url(#clip-path)"><g id="グループ_184"><g id="グループ_183" class="cls-7"><g id="グループ_182" opacity=".1"><g id="グループ_181"><g id="グループ_180" class="cls-7"><path id="パス_221" fill="#177bac" d="M197.806 111.129H0V1.261A1.26 1.26 0 011.26 0h195.286a1.26 1.26 0 011.26 1.261z"/></g></g></g></g></g></g></g><g id="グループ_178" opacity=".999" transform="translate(282.504 1686.391)"><g id="グループ_170" clip-path="url(#clip-path-4)"><path id="パス_206" fill="none" stroke="#0a9ae5" stroke-dasharray="1.996 7.984" stroke-linecap="round" stroke-miterlimit="10" stroke-width="3" d="M77.31 39.155A38.154 38.154 0 1139.155 1 38.154 38.154 0 0177.31 39.155z"/></g></g><g id="グループ_176" transform="translate(321.87 1621.896)"><g id="グループ_177"><g filter="url(#長方形_121)" transform="translate(-96.99 -43.49)"><rect id="長方形_121-2" width="194" height="108" class="cls-3" rx="12" transform="translate(98 45)"/></g><g id="グループ_173" clip-path="url(#clip-path-5)" transform="translate(.414 .653)"><path id="パス_208" d="M194.514 109.117H.289V1.237A1.238 1.238 0 011.526 0h191.751a1.238 1.238 0 011.237 1.238z" class="cls-3" transform="translate(.106 -.001)"/><path id="パス_209" d="M194.514 8.838H.289v-7.6A1.238 1.238 0 011.526 0h191.751a1.238 1.238 0 011.237 1.238z" class="cls-14" transform="translate(.106)"/><path id="パス_210" d="M36.336 5.542H5.173a1.5 1.5 0 010-3.008h31.163a1.5 1.5 0 110 3.008" class="cls-15" transform="translate(1.345 .928)"/><path id="パス_211" d="M129.621 5.593a1.574 1.574 0 111.573-1.573 1.573 1.573 0 01-1.573 1.573" class="cls-15" transform="translate(46.937 .896)"/><path id="パス_212" d="M133.775 5.593a1.574 1.574 0 111.573-1.573 1.572 1.572 0 01-1.573 1.573" class="cls-15" transform="translate(48.46 .896)"/><path id="パス_213" d="M137.928 5.593A1.574 1.574 0 11139.5 4.02a1.573 1.573 0 01-1.573 1.573" class="cls-15" transform="translate(49.982 .896)"/><path id="パス_214" fill="#00c3ff" d="M.791 88.242L0 87.727c.745-1.145 1.588-2.646 2.562-4.385 3.973-7.083 9.977-17.786 17.728-17.786 6.769 0 10.522 2.36 14.5 4.858 4.428 2.782 9.006 5.662 18.4 5.662 11.77 0 18.9-9.092 25.191-17.115C83.575 52.33 88.065 46.6 94.251 46.6c10.393 0 14.87 4.055 19.2 7.977 3.951 3.576 7.68 6.953 15.782 6.953 7.729 0 15.084-7.282 23.6-15.717 11.353-11.241 24.258-23.982 41.815-22.722l-.066.939c-17.173-1.208-29.872 11.353-41.082 22.453-8.667 8.581-16.15 15.991-24.266 15.991-8.466 0-12.505-3.66-16.414-7.2-4.2-3.8-8.54-7.732-18.567-7.732-5.729 0-10.088 5.559-15.139 12-6.42 8.19-13.7 17.474-25.93 17.474-9.662 0-14.357-2.95-18.9-5.806-3.856-2.422-7.5-4.711-13.994-4.711-7.2 0-13.041 10.413-16.906 17.3-.984 1.758-1.832 3.272-2.593 4.443" transform="translate(0 8.432)"/><path id="パス_215" d="M17.694 55.33a2.9 2.9 0 11-2.9-2.9 2.9 2.9 0 012.9 2.9" class="cls-14" transform="translate(4.361 19.219)"/><path id="パス_216" d="M43.884 62.772a2.9 2.9 0 11-2.9-2.9 2.9 2.9 0 012.9 2.9" class="cls-14" transform="translate(13.961 21.947)"/><path id="パス_217" d="M72.908 41.555a2.9 2.9 0 11-2.9-2.9 2.9 2.9 0 012.9 2.9" class="cls-14" transform="translate(24.6 14.17)"/><path id="パス_218" d="M98.538 52.321a2.9 2.9 0 11-2.9-2.9 2.9 2.9 0 012.9 2.9" class="cls-14" transform="translate(33.995 18.116)"/><path id="パス_219" d="M129.691 28.586a2.9 2.9 0 11-2.9-2.9 2.9 2.9 0 012.9 2.9" class="cls-14" transform="translate(45.415 9.416)"/></g></g></g><g id="楕円形_10" fill="#fff" stroke="#0a9ae5" transform="translate(303.883 1706.411)"><circle cx="17.5" cy="17.5" r="17.5" stroke="none"/><circle cx="17.5" cy="17.5" r="17" class="cls-1"/></g><path id="パス_220" fill="#018bc4" d="M396.732 338.753l-7.806 7.193a.291.291 0 00.129.489l4.776 1.672a.3.3 0 01.177.433l-4.213 6.594c-.189.294.247.61.514.372l9.308-8.3a.291.291 0 00-.126-.493L395 345.141a.3.3 0 01-.2-.394l2.464-5.662c.136-.299-.286-.558-.532-.332z" transform="translate(-72.975 1376.348)"/></g></g></svg>