<svg width="390" height="260" viewBox="0 0 390 260" fill="none" xmlns="http://www.w3.org/2000/svg"><path d="M88.58 212.953h39.6c1.7 0 3.2 1.4 3.2 3.2v3.4c0 1.9-1.5 3.4-3.4 3.4h-39.6c-1.5 0-2.7-1.2-2.7-2.7v-4.4c0-1.6 1.3-2.9 2.9-2.9zm-.9 16.7h41.6c1.3 0 2.4 1.1 2.4 2.4v5.3c0 1.3-1.1 2.4-2.4 2.4h-12c-1.1 0-2 .7-2.3 1.8l-3.6 13.7c-.3 1-1.2 1.8-2.3 1.8h-5.6c-1.3 0-2.4-1.1-2.4-2.4 0-.2 0-.4.1-.6l3.2-11.3c.4-1.3-.4-2.6-1.6-2.9-.2-.1-.4-.1-.6-.1h-14c-1.3 0-2.4-1.1-2.4-2.4v-5.5c-.1-1.4.8-2.2 1.9-2.2zm69.4-16.9c.9 0 1.6.7 1.6 1.6v30.7c0 .7-.3 3.1.5 3.5 1.3.7 2.4 0 4.4-1.2 3.2-2 6.3-4.4 9-7.1l17.6-16.2c.7-.6 1.7-.6 2.3.1.3.3.4.7.4 1.1v8.7c0 .5-.2.9-.5 1.2l-20.3 18.5c-.5.4-1 .8-1.5 1.1-5.7 3.6-9.5 4.3-11.4 4.3-4.9 0-8.2.4-9.4-1.6-1.7-2.8-1.1-6.8-1.1-12.1v-31c0-.9.7-1.6 1.6-1.6h6.8zm49.3.2h19.8c1.3 0 2.3 1 2.3 2.3v5.3c0 1.3-1 2.3-2.3 2.3h-19.8c-1.3 0-2.3-1-2.3-2.3v-5.3c-.1-1.3 1-2.3 2.3-2.3zm0 15.5h19.8c1.3 0 2.3 1 2.3 2.3v5.3c0 1.3-1 2.3-2.3 2.3h-19.8c-1.3 0-2.3-1-2.3-2.3v-5.3c-.1-1.3 1-2.3 2.3-2.3zm49.2-12.2l-15.8 39.2c-.4.9-1.2 1.5-2.2 1.5h-5.9c-1.3 0-2.3-1.1-2.3-2.3 0-.3.1-.6.2-.9l15.8-39.3c.4-.9 1.2-1.5 2.2-1.5h5.9c1.3 0 2.3 1.1 2.3 2.3 0 .4-.1.7-.2 1zm10.8 13.4h41c1.3 0 2.3 1 2.3 2.3v5.3c0 1.3-1 2.3-2.3 2.3h-41c-1.3 0-2.3-1-2.3-2.3v-5.3c-.1-1.3 1-2.3 2.3-2.3zM13.7 89.454H3c-1.2 0-2.2-1-2.2-2.2v-8c0-1.2 1-2.2 2.2-2.2h39c1.2 0 2.2 1 2.2 2.2v8c0 1.2-1 2.2-2.2 2.2H31.2c-1.2 0-2.2 1-2.2 2.2v74.7c0 1.2-1 2.2-2.2 2.2h-8.7c-1.2 0-2.2-1-2.2-2.2v-74.8c0-1.2-.9-2.1-2.2-2.1zm59.1-12.4H107c1.3 0 2.4 1.1 2.4 2.4v7.6c0 1.3-1.1 2.4-2.4 2.4H85.9c-1.3 0-2.4 1.1-2.4 2.4v22.1c0 1.3 1.1 2.4 2.4 2.4h17.8c1.3 0 2.4 1.1 2.4 2.4v7.6c0 1.3-1.1 2.4-2.4 2.4H85.9c-1.3 0-2.4 1.1-2.4 2.4v22.1c0 1.3 1.1 2.4 2.4 2.4h21.2c1.3 0 2.4 1.1 2.4 2.4v8c0 1.3-1.1 2.4-2.4 2.4H72.8c-1.3 0-2.4-1.1-2.4-2.4v-86.6c.1-1.3 1.1-2.4 2.4-2.4zm68.1 0h8.1c1.4 0 2.5 1.1 2.5 2.5v73.3c0 1.4 1.1 2.5 2.5 2.5h21c1.4 0 2.5 1.1 2.5 2.5v8.1c0 1.4-1.1 2.5-2.5 2.5h-34.1c-1.4 0-2.5-1.1-2.5-2.5v-86.4c.1-1.3 1.2-2.5 2.5-2.5zm68 0H243c1.4 0 2.5 1.1 2.5 2.5v7.4c0 1.4-1.1 2.5-2.5 2.5h-21c-1.4 0-2.5 1.1-2.5 2.5v21.9c0 1.4 1.1 2.5 2.5 2.5h17.6c1.4 0 2.5 1.1 2.5 2.5v7.2c0 1.4-1.1 2.5-2.5 2.5H222c-1.4 0-2.5 1.1-2.5 2.5v21.9c0 1.4 1.1 2.5 2.5 2.5h21c1.4 0 2.5 1.1 2.5 2.5v8.1c0 1.4-1.1 2.5-2.5 2.5h-34.1c-1.4 0-2.5-1.1-2.5-2.5v-86.5c.1-1.4 1.2-2.5 2.5-2.5zm107.2 71c0 2.8-.5 5.5-1.6 8.1-1 2.5-2.5 4.8-4.4 6.7-1.9 1.9-4.1 3.5-6.6 4.6-2.6 1.2-5.3 1.8-8.1 1.7-2.6 0-5.1-.4-7.6-1-2.5-.7-4.9-1.9-6.9-3.5-2.2-1.8-3.9-4.1-5.1-6.6-1.4-3.3-2.1-6.8-2-10.4v-50.3c0-2.9.5-5.7 1.5-8.3 1-2.5 2.5-4.8 4.4-6.7 1.9-1.9 4.2-3.4 6.7-4.4 2.8-1.1 5.7-1.6 8.7-1.6 2.9 0 5.7.5 8.3 1.6 2.5 1 4.8 2.6 6.7 4.5 1.9 2 3.4 4.3 4.4 6.9 1.1 2.8 1.6 5.8 1.6 8.8v2.7c0 1.3-1.1 2.4-2.4 2.4h-8.3c-1.3 0-2.4-1.1-2.4-2.4v-2c.1-2.4-.7-4.8-2.2-6.7-1.4-1.8-3.6-2.9-5.9-2.8-3.3 0-5.4 1-6.5 3-1.1 2.4-1.7 5-1.6 7.6v46.7c-.1 2.3.5 4.7 1.7 6.7 1.2 1.8 3.2 2.7 6.2 2.7.9 0 1.9-.2 2.8-.4 1-.3 1.9-.8 2.7-1.5.9-.8 1.6-1.7 2-2.8.6-1.4.8-3 .8-4.5v-2.1c0-1.3 1.1-2.4 2.4-2.4h8.3c1.3 0 2.4 1.1 2.4 2.4v3.3zm43.2-18.5l-17-49.8c-.3-1 .2-2.1 1.2-2.5.2-.1.4-.1.6-.1h9.7c.9 0 1.6.6 1.9 1.4l10.1 34.9h.3l10.1-34.9c.2-.8 1-1.4 1.9-1.4h9.7c1.1 0 2 .9 2 2 0 .2 0 .4-.1.6l-17 49.8c-.1.2-.1.4-.1.6v36.3c0 1.1-.9 2-2 2h-9.2c-1.1 0-2-.9-2-2v-36.3c0-.2 0-.4-.1-.6zM27.621 7.5h26.1c.7 0 1.3.6 1.3 1.3v3.7c0 .7-.6 1.3-1.3 1.3h-26.1c-.7 0-1.3-.6-1.3-1.3V8.8c.1-.8.7-1.3 1.3-1.3zm0 10.4h26.3c.7 0 1.3.6 1.3 1.3v3.7c0 .7-.6 1.3-1.3 1.3h-7.9c-.6 0-1.1.4-1.2.9l-2.4 8.9c-.1.6-.6.9-1.2.9h-3.9c-.7 0-1.3-.6-1.3-1.3v-.3l2.1-7.6c.2-.7-.2-1.4-.9-1.6h-9.5c-.7 0-1.3-.6-1.3-1.3v-3.7c0-.6.6-1.2 1.2-1.2zm39.4-10.6c.6 0 1.1.5 1.1 1.1v19.1c0 .5.2 1 .6 1.3.5.5 1.3.6 2.5.1s3-1.9 5.6-4.4l12.8-11.6v7.7c0 .3-.1.6-.4.8l-13 12.1c-1.5 1.2-3.4 2.1-5.3 2.4-2.1.3-4.2-.2-6-1.3-2-1.2-3-3.4-3-6.8V8.5c0-.6.5-1.1 1.1-1.1l4-.1zm36.4 0v4.6h20.5c.8 0 1.5.7 1.5 1.5v3.2c0 .8-.7 1.5-1.5 1.5h-20.5V21c0 1.2 0 2.4.3 3.5.2 1.1.7 2.1 1.5 2.9.8.8 1.8 1.3 2.9 1.4h15.8c.8 0 1.5.7 1.5 1.5v3.2c0 .8-.7 1.5-1.5 1.5h-17.5c-2-.1-3.9-.8-5.4-2.2-1.4-1.4-2.5-3.1-3.1-5-.6-2-.9-4.1-.9-6.2V8.9c0-.8.7-1.5 1.5-1.5l4.9-.1zm8.1-.6c0-1.8 1.5-3.3 3.4-3.3s3.3 1.5 3.3 3.4c0 1.8-1.5 3.3-3.4 3.3-.9 0-1.7-.4-2.3-1-.6-.6-1-1.5-1-2.4zm8 0c0-1.8 1.5-3.3 3.4-3.3s3.3 1.5 3.3 3.4c0 1.8-1.5 3.3-3.4 3.3-.9 0-1.7-.4-2.3-1-.6-.6-1-1.5-1-2.4zm100.5.6c.5 0 .9.4.9.9v19.1c.1 2.2.7 4.4 1.6 6.4.2.5 0 1-.5 1.2-.1 0-.2.1-.3.1h-4.5c-.4 0-.7-.2-.9-.6-1-2.3-1.6-4.8-1.7-7.3v-19c0-.5.4-.9.9-.9l4.5.1zm8.8 10.6l4.6-4.6-8-.2c-.5 0-.9-.4-.9-.9v-4c0-.5.4-.9.9-.9l15.2.2c.8 0 1.5.3 2.1.8.5.6.8 1.3.8 2.1 0 .5-.1 1-.3 1.4l-6.3 5.8c-.2.2-.4.2-.6.2l-7.5.1zm-.5 9.7c4.1 1.8 8.8 2 13 .5.5-.2 1 .1 1.1.5l1.1 3.8c.1.4-.1.9-.5 1.1-5.4 2.4-11.6 2.2-16.9-.5-.4-.2-.6-.7-.5-1.2l1.4-3.8c.3-.4.8-.6 1.3-.4-.1 0-.1 0 0 0zm32.8-13.5c-.5 0-1-.4-1-1V9c0-.5-.4-1-1-1h-6.9V3.7h7.9V.3h5.4v3.4h11V.3h5.4v3.4h7.9V8h-6.9c-.5 0-1 .4-1 1v4.2c0 .5-.4 1-1 1h-7.1v2.2h11.8c.5 0 1 .4 1 1v9.4c0 .5-.4 1-1 1h-11.7v2.6h16.2v4.4h-15.2c-.5 0-1 .4-1 1v2.6c0 .5-.4 1-1 1h-3.8c-.5 0-1-.4-1-1v-2.6c0-.5-.4-1-1-1h-15.2v-4.4h16.2v-2.6h-11.5c-.5 0-1-.4-1-1v-9.4c0-.5.4-1 1-1h11.7v-2.3h-7.2zm7.1 9.6v-3.5h-7.2v3.5h7.2zm-2.6-15.7v2.4h11V8h-11zm8.4 15.7h7.2v-3.5h-7.2v3.5zm50.3-12.5v2.6h-21.1v-2.6c-1.9 1-4 2.1-6.4 3.2-.6.3-1.3 0-1.6-.6l-.9-2.1c-.3-.6 0-1.3.6-1.6 5.4-2.5 10.4-5.6 15.1-9.3.2-.2.5-.2.7-.2h6.2c.3 0 .5.1.7.2 4.7 3.6 9.8 6.7 15.1 9.3.6.3.8 1 .6 1.6l-.9 2.1c-.3.6-1 .9-1.6.6-2.5-1.1-4.7-2.2-6.5-3.2zm-22.7 23.5v2.5h-4c-.7 0-1.2-.5-1.2-1.2V17.4c0-.7.5-1.2 1.2-1.2h13.1c.7 0 1.2.5 1.2 1.2v16c0 .7-.5 1.2-1.2 1.2l-9.1.1zm5.4-5.7v-6.9c0-.7-.5-1.2-1.2-1.2h-2.9c-.7 0-1.2.5-1.2 1.2V29c0 .7.5 1.2 1.2 1.2h2.9c.6 0 1.2-.6 1.2-1.2zm14-19.8c-2.3-1.4-4.5-2.9-6.6-4.5-.4-.3-1-.3-1.4 0-2.1 1.6-4.3 3.1-6.6 4.5h14.6zm4.4 25.8c-.5 0-1.7 0-3.8-.1l-.3-4.7c1.7.1 2.8.1 3.2.1.6.1 1.1 0 1.6-.2.2-.5.3-1.1.2-1.7v-6.9c0-.7-.5-1.2-1.2-1.2h-3.8c-.7 0-1.2.5-1.2 1.2v15.9c0 .7-.5 1.2-1.2 1.2h-3c-.7 0-1.2-.5-1.2-1.2V17.1c0-.7.5-1.2 1.2-1.2h14.4c.7 0 1.2.5 1.2 1.2v11.1c0 1.2 0 2.5-.1 3.7-.1.7-.4 1.4-.9 2-.5.5-1.1.9-1.8.9-1.1.2-2.2.3-3.3.2zm13.2-25.8h9.7c.3 0 .5-.2.6-.5l.8-5c0-.3.3-.5.6-.5h5.1c.3 0 .6.3.6.6v.1l-.8 4.6c-.1.3.2.6.5.7h8.3v4.9h-9.9l-.6 4.1h9.2c.3 0 .6.3.6.6v.1l-1 5.2h-2.8v2.7h-6.3v-2.7l-3.6.5c-.4 0-.8.1-1.1.4-.3.2-.5.5-.7.8-.1.3-.2.5-.2.8 0 .3.1.6.2.9.1.3.4.6.7.8.3.2.7.3 1.1.3h11c.3 0 .6.3.6.6v5.2c0 .3-.3.6-.6.6h-10.1c-1.9.1-3.8-.4-5.4-1.4-1.3-.8-2.3-1.9-3-3.2-.6-1.1-.9-2.4-.9-3.7 0-1.3.3-2.5.9-3.7.7-1.3 1.8-2.4 3-3.2.6-.4 1.3-.8 2.1-1l.7-4.7h-9.3V9.2zM138.765 7.166c3-2.6 6.8-4 10.8-3.8 5.8 0 10.1 1.7 12.8 5.1 1.4 1.6 2.2 3.7 2.4 5.8h-6.3c-.6 0-1.1-.4-1.4-.9-.3-.9-.8-1.7-1.5-2.5-.6-.6-1.3-1.1-2.1-1.4-3.6-1.5-8.8.2-10.6 3.3-1.1 2.2-1.6 4.6-1.5 7 0 3.5.8 6.1 2.4 7.8 1.5 1.7 3.7 2.7 6 2.6 2.1.1 4.3-.7 5.7-2.2.6-.7 1.1-1.6 1.4-2.5.3-.7.9-1.1 1.6-1.1h4.1c1.2 0 1.8.6 1.6 1.3-.7 2.7-2.3 5.2-4.5 7-2.8 2.2-6.3 3.3-9.9 3.2-5 0-8.9-1.4-11.7-4.3-2.9-2.9-4.3-6.8-4.3-11.8.2-5.5 1.8-9.7 5-12.6zm56.3-3.2h7.7c.8 0 1.5.6 1.6 1.4v28.2c-.1.8-.8 1.4-1.6 1.4h-3.7c-.8 0-1.5-.6-1.6-1.4v-24.6l-6.3 24.9c-.2.7-.8 1.1-1.5 1.1h-4.6c-.7 0-1.3-.4-1.5-1.1l-6.3-25v24.6c-.1.8-.8 1.4-1.6 1.4h-3.7c-.8 0-1.5-.6-1.6-1.4v-26.4c.1-1.8 1.7-3.2 3.5-3.1h4.5c1.4-.1 2.7.9 3.2 2.2l4.2 16.2c.3.9 1.2 1.3 2.1 1 .5-.2.8-.5 1-1l4.5-17.4c.4-.6 1-1.1 1.7-1z" fill="#046EB8"/></svg>