<svg width="68" height="57" viewBox="0 0 68 57" fill="none" xmlns="http://www.w3.org/2000/svg"><g clip-path="url(#clip0)"><path opacity=".604" d="M1.12 45.52C.373 43.173 0 37.36 0 28.08c0-9.28.373-15.093 1.12-17.44C3.36 3.547 8.507 0 16.56 0c8 0 13.173 3.547 15.52 10.64.747 2.347 1.12 8.16 1.12 17.44 0 9.28-.373 15.093-1.12 17.44-2.347 7.093-7.52 10.64-15.52 10.64-8.053 0-13.2-3.547-15.44-10.64zm8.8-1.68c1.013 2.88 3.227 4.32 6.64 4.32s5.653-1.44 6.72-4.32c.48-1.44.72-6.693.72-15.76s-.24-14.32-.72-15.76C22.213 9.44 19.973 8 16.56 8s-5.627 1.44-6.64 4.32c-.48 1.44-.72 6.693-.72 15.76s.24 14.32.72 15.76zm48.4 10.64V11.6h-.16l-8.32 5.84c-.587.373-.88.213-.88-.48V8.8a1.438 1.438 0 01.56-1.12l8.72-6.32a2.34 2.34 0 011.44-.48h6.8a.707.707 0 01.8.8v52.8a.707.707 0 01-.8.8h-7.36a.707.707 0 01-.8-.8z" fill="#BAE0F0"/></g><defs><clipPath id="clip0"><rect width="67.28" height="56.16" fill="#fff"/></clipPath></defs></svg>