<svg xmlns="http://www.w3.org/2000/svg" width="77.44" height="56.16" viewBox="0 0 77.44 56.16"><path fill="#bae0f0" d="M1.12 45.52Q0 42 0 28.08t1.12-17.44Q4.48 0 16.56 0q12 0 15.52 10.64 1.12 3.52 1.12 17.44t-1.12 17.44q-3.52 10.64-15.52 10.64-12.08 0-15.44-10.64zm8.8-1.68q1.52 4.32 6.64 4.32t6.72-4.32q.72-2.16.72-15.76t-.72-15.76Q21.68 8 16.56 8t-6.64 4.32q-.72 2.16-.72 15.76t.72 15.76zm35.12 1.12q-.16-.72.64-.96l6.8-1.68a.831.831 0 01.96.64q1.76 5.2 7.52 5.2 5.2 0 6.72-4.48a17.932 17.932 0 00.72-6 18.808 18.808 0 00-.72-6q-1.44-4.48-6.8-4.48-4.88 0-6.64 3.76-.32.8-.96.8h-6.72a.707.707 0 01-.8-.8V1.68a.707.707 0 01.8-.8h28.96a.707.707 0 01.8.8v6.4a.707.707 0 01-.8.8H54.48a.424.424 0 00-.48.48V21.6h.24a12.335 12.335 0 018-2.4 15.852 15.852 0 018.92 2.4 12.539 12.539 0 015.08 6.8 31.369 31.369 0 011.2 9.28 27.529 27.529 0 01-1.12 8.56 13.287 13.287 0 01-5.68 7.28 17.676 17.676 0 01-9.68 2.64 18.039 18.039 0 01-10.68-3.08 12.209 12.209 0 01-5.24-8.12z"/></svg>