<svg xmlns="http://www.w3.org/2000/svg" width="33.937" height="49.14" viewBox="0 0 33.937 49.14"><path fill="#036e88" d="M1.26 37.45Q0 33.67 0 24.57t1.26-12.88a16.159 16.159 0 016.09-8.72A17.792 17.792 0 0117.775 0a17.7 17.7 0 019.835 2.695 16.6 16.6 0 016.265 7.525.583.583 0 01-.35.84l-5.95 2.87q-.63.35-.91-.35-2.8-6.16-8.89-6.16-6.37 0-8.54 6.3-.84 2.59-.84 10.85t.84 10.85q2.17 6.3 8.54 6.3 6.09 0 8.89-6.16.28-.7.91-.35l5.95 2.87a.583.583 0 01.35.84 16.6 16.6 0 01-6.26 7.525 17.7 17.7 0 01-9.84 2.695A17.792 17.792 0 017.35 46.17a16.159 16.159 0 01-6.09-8.72z"/></svg>