<svg xmlns="http://www.w3.org/2000/svg" width="76.48" height="56.16" viewBox="0 0 76.48 56.16"><path fill="#bae0f0" d="M1.12 45.52Q0 42 0 28.08t1.12-17.44Q4.48 0 16.56 0q12 0 15.52 10.64 1.12 3.52 1.12 17.44t-1.12 17.44q-3.52 10.64-15.52 10.64-12.08 0-15.44-10.64zm8.8-1.68q1.52 4.32 6.64 4.32t6.72-4.32q.72-2.16.72-15.76t-.72-15.76Q21.68 8 16.56 8t-6.64 4.32q-.72 2.16-.72 15.76t.72 15.76zm34.4 10.64v-6a1.407 1.407 0 01.4-1.04l19.2-23.92q3.52-4.32 3.52-8.32a7.231 7.231 0 00-1.92-5.16A6.9 6.9 0 0060.24 8a7.039 7.039 0 00-5.08 1.8 8.048 8.048 0 00-2.28 5q-.16.8-.88.64L44.96 14a.721.721 0 01-.64-.96 14.135 14.135 0 014.76-9.2Q53.28 0 60.48 0q7.44 0 11.72 4.32a14.824 14.824 0 014.28 10.88q0 6.56-5.12 12.72l-15.84 19.2v.16h20.16a.707.707 0 01.8.8v6.4a.707.707 0 01-.8.8H45.12a.707.707 0 01-.8-.8z"/></svg>