<svg xmlns="http://www.w3.org/2000/svg" width="77.28" height="56.16" viewBox="0 0 77.28 56.16"><path fill="#bae0f0" d="M1.12 45.52Q0 42 0 28.08t1.12-17.44Q4.48 0 16.56 0q12 0 15.52 10.64 1.12 3.52 1.12 17.44t-1.12 17.44q-3.52 10.64-15.52 10.64-12.08 0-15.44-10.64zm8.8-1.68q1.52 4.32 6.64 4.32t6.72-4.32q.72-2.16.72-15.76t-.72-15.76Q21.68 8 16.56 8t-6.64 4.32q-.72 2.16-.72 15.76t.72 15.76zm33.52.64a.81.81 0 01.64-1.04l6.96-1.6a.742.742 0 01.96.56q2 5.76 8.24 5.76a7.735 7.735 0 005.84-2.24 8.061 8.061 0 002.16-5.84 8.756 8.756 0 00-2.4-6.48 8.756 8.756 0 00-6.48-2.4h-2.32a.707.707 0 01-.8-.8v-6.32a.707.707 0 01.8-.8h2.16a7.785 7.785 0 005.76-2.16 7.785 7.785 0 002.16-5.76 7.358 7.358 0 00-1.96-5.32A7.031 7.031 0 0059.84 8q-5.68 0-7.28 5.6a.742.742 0 01-.96.56l-6.8-1.6a.721.721 0 01-.64-.96 13.313 13.313 0 015.28-8.32A17.214 17.214 0 0160.16 0q7.44 0 11.72 4.16a14.491 14.491 0 014.28 10.88 12.748 12.748 0 01-6.08 11.28v.16a11.768 11.768 0 014.96 4.76 15.517 15.517 0 012.24 8.44 15.69 15.69 0 01-4.8 11.92 17.054 17.054 0 01-12.24 4.56 19.069 19.069 0 01-11-3.08 13.787 13.787 0 01-5.8-8.6z"/></svg>