<svg xmlns="http://www.w3.org/2000/svg" width="79.12" height="56.16" viewBox="0 0 79.12 56.16"><path fill="#bae0f0" d="M1.12 45.52Q0 42 0 28.08t1.12-17.44Q4.48 0 16.56 0q12 0 15.52 10.64 1.12 3.52 1.12 17.44t-1.12 17.44q-3.52 10.64-15.52 10.64-12.08 0-15.44-10.64zm8.8-1.68q1.52 4.32 6.64 4.32t6.72-4.32q.72-2.16.72-15.76t-.72-15.76Q21.68 8 16.56 8t-6.64 4.32q-.72 2.16-.72 15.76t.72 15.76zm33.12 3.12a.707.707 0 01-.8-.8V40a1.832 1.832 0 01.24-.96l17.6-37.52A1.146 1.146 0 0161.2.88h7.6q.88 0 .56.72L52.08 38.8v.16H64.4a.424.424 0 00.48-.48v-13.6a.707.707 0 01.8-.8h7.36a.707.707 0 01.8.8v13.6a.424.424 0 00.48.48h4a.707.707 0 01.8.8v6.4a.707.707 0 01-.8.8h-4a.424.424 0 00-.48.48v7.04a.707.707 0 01-.8.8h-7.36a.707.707 0 01-.8-.8v-7.04a.424.424 0 00-.48-.48z"/></svg>