<svg xmlns="http://www.w3.org/2000/svg" width="36.675" height="51" viewBox="0 0 36.675 51"><path fill="#2281b0" d="M8.1 51H.75a.663.663 0 01-.75-.75V.75A.663.663 0 01.75 0h19.125Q27.3 0 31.987 4.387a14.946 14.946 0 014.688 11.438 15.036 15.036 0 01-4.687 11.513q-4.688 4.387-12.113 4.387H9.3a.4.4 0 00-.45.45V50.25a.663.663 0 01-.75.75zm11.25-27.3a8.7 8.7 0 006.187-2.138 7.476 7.476 0 002.288-5.737 7.5 7.5 0 00-2.288-5.7A8.61 8.61 0 0019.35 7.95H9.3a.4.4 0 00-.45.45v14.85a.4.4 0 00.45.45z"/></svg>