<svg width="133" height="37" viewBox="0 0 133 37" fill="none" xmlns="http://www.w3.org/2000/svg"><path d="M73.08 26.864h7.8c.3 0 .6.3.6.6v.7c0 .4-.3.7-.7.7h-7.7c-.3 0-.5-.2-.5-.5v-.9c0-.3.2-.6.5-.6zm-.1 3.3h8.2c.3 0 .5.2.5.5v1c0 .3-.2.5-.5.5h-2.4c-.2 0-.4.1-.5.3l-.7 2.7c0 .2-.2.4-.4.4h-1.1c-.3 0-.5-.2-.5-.5v-.1l.7-2.2c0-.3-.1-.5-.4-.6h-2.9c-.2 0-.4-.2-.4-.5v-1.1c0-.2.1-.4.4-.4zm13.7-3.3c.2 0 .3.1.3.3v6.1c0 .1-.1.6.1.7.3.1.5 0 .9-.2.6-.4 1.2-.9 1.8-1.4l3.5-3.2c0-.2.2-.2.3-.1.1.1.1.1.1.2v1.7c0 .1 0 .2-.1.2l-4 3.6c-.1.2-.2.3-.3.4-.7.5-1.4.8-2.2.9-1 0-1.6.1-1.9-.3-.3-.8-.3-1.6-.2-2.4v-6.2c0-.2.1-.3.3-.3h1.4zm9.7 0h3.9c.3 0 .5.2.5.5v1c0 .3-.2.5-.5.5h-3.9c-.3 0-.5-.2-.5-.5v-1c0-.3.2-.5.5-.5zm0 3.1h3.9c.3 0 .5.2.5.5v1c-.1.2-.3.5-.5.5h-3.9c-.3 0-.5-.2-.5-.5v-1c0-.3.2-.5.5-.5zm9.7-2.4l-3.1 7.7c-.1.2-.2.3-.4.3h-1.2c-.3 0-.5-.2-.5-.5v-.2l3.1-7.7c.1-.2.2-.3.4-.3h1.2c.3 0 .5.2.5.5v.2zm2.1 2.6h8.1c.3 0 .5.2.5.5v1c0 .3-.2.5-.5.5h-8.1c-.3 0-.5-.2-.5-.5v-1c0-.3.3-.5.5-.5zM35.428 2.604c-4.8-1.1-9.6-1.7-14.5-1.7-5 0-10 .5-14.9 1.7-2.3.5-4.2 2.3-4.8 4.6-.7 2.9-1 6-1 9 0 3.1.3 6.1 1 9.1.6 2.3 2.4 4 4.7 4.5 4.8 1.1 9.6 1.7 14.5 1.7 5 0 10-.5 14.9-1.7 2.3-.5 4.2-2.3 4.8-4.6.7-2.9 1-6 1-9 0-3.1-.3-6.1-1-9.1-.6-2.3-2.4-4-4.7-4.5zm2.7 22.1c-.4 1.7-1.8 3-3.5 3.3-4.6 1.1-9.3 1.6-14 1.6-4.6 0-9.2-.5-13.7-1.6-1.7-.4-3-1.6-3.5-3.3-.6-2.8-1-5.7-1-8.5s.3-5.6.9-8.4c.4-1.7 1.8-3 3.5-3.3 4.6-1.1 9.3-1.6 14-1.6 4.6 0 9.2.5 13.7 1.6 1.7.4 3 1.6 3.5 3.3.6 2.8 1 5.7 1 8.5s-.3 5.6-.9 8.4z" fill="#046EB8"/><path d="M23.028 8.704l-7.1 6.6c-.1.1-.1.3 0 .4l.1.1 4.4 1.5c.1 0 .2.2.2.3v.1l-3.9 6c-.2.3.2.6.5.3l8.5-7.6c.1-.1.1-.3 0-.4l-.1-.1-4.1-1.4c-.1 0-.2-.2-.2-.3l2.3-5.2c0-.3-.4-.5-.6-.3zm35.311-3.385h-2.1c-.2 0-.4-.2-.4-.5v-1.5c0-.3.2-.5.4-.5h7.7c.2 0 .4.2.4.4v1.6c0 .2-.2.4-.4.4h-2.1c-.3.1-.5.3-.5.5v14.7c0 .2-.2.4-.4.4h-1.7c-.2 0-.4-.2-.4-.4v-14.7c0-.2-.2-.4-.5-.4zm11.7-2.5h6.8c.3 0 .5.2.5.5v1.5c0 .3-.2.5-.5.5h-4.2c-.3 0-.5.2-.5.5v4.4c0 .3.2.5.5.5h3.5c.2-.1.4.1.4.3v1.5c0 .3-.2.5-.5.5h-3.5c-.3 0-.5.2-.5.5v4.3c0 .3.2.5.5.5h4.2c.3 0 .5.2.5.5v1.6c0 .3-.2.5-.5.5h-6.8c-.3 0-.5-.2-.5-.5v-17.1c.1-.2.3-.5.6-.5zm13.4 0h1.6c.3 0 .5.3.5.5v14.5c0 .3.2.5.5.5h4.1c.3 0 .5.2.5.5v1.6c0 .3-.2.5-.5.5h-6.7c-.3 0-.5-.2-.5-.5v-17c0-.3.2-.6.5-.6zm13.4 0h6.7c.3 0 .5.2.5.5v1.5c0 .3-.2.5-.5.5h-4.1c-.3 0-.5.2-.5.5v4.3c0 .3.2.5.5.5h3.5c.3 0 .5.2.5.5v1.5c0 .3-.2.5-.5.5h-3.5c-.3 0-.5.2-.5.5v4.2c0 .3.2.5.5.5h4.1c.3 0 .5.2.5.5v1.6c0 .3-.2.5-.5.5h-6.7c-.3 0-.5-.2-.5-.5v-17c0-.3.3-.6.5-.6zm21.2 14c0 .5-.1 1.1-.3 1.6-.2.5-.5.9-.9 1.3s-.8.7-1.3.9c-.5.2-1.1.3-1.6.3s-1-.1-1.5-.2-1-.4-1.4-.7c-.4-.4-.8-.8-1-1.3-.3-.6-.4-1.3-.4-2v-9.9c0-.6.1-1.1.3-1.6.2-.5.5-.9.9-1.3s.8-.7 1.3-.9c.5-.2 1.1-.3 1.7-.3.6 0 1.1.1 1.6.3.5.2.9.5 1.3.9s.7.9.9 1.4c.2.6.3 1.1.3 1.7v.5c0 .3-.2.5-.5.5h-1.6c-.3 0-.5-.2-.5-.5v-.4c0-.5-.1-.9-.4-1.3-.3-.4-.7-.6-1.2-.6-.5-.1-1 .2-1.3.6-.2.5-.3 1-.3 1.5v9.2c0 .5.1.9.3 1.3.3.4.8.6 1.2.5.2 0 .4 0 .5-.1.2-.1.4-.2.5-.3.2-.2.3-.3.4-.6.1-.3.2-.6.2-.9v-.4c0-.3.2-.5.5-.5h1.8c.3 0 .5.2.5.5v.8zm8.5-3.6l-3.3-9.8c-.1-.2 0-.4.2-.5h2c.2 0 .3.1.4.3l2 6.9h.1l2-6.9c0-.2.2-.3.4-.3h1.9c.1-.1.3.1.3.3v.1l-3.3 9.8v7.3c0 .2-.2.4-.4.4h-1.8c-.2 0-.4-.2-.4-.4v-7.2c-.1.1-.1 0-.1 0zM20.728 36.504c5.688 0 10.3-.716 10.3-1.6 0-.884-4.611-1.6-10.3-1.6-5.689 0-10.3.716-10.3 1.6 0 .884 4.611 1.6 10.3 1.6z" fill="#046EB8"/></svg>