<svg xmlns="http://www.w3.org/2000/svg" width="736.574" height="500" viewBox="0 0 736.574 500"><defs><clipPath id="clip-path"><path id="長方形_118" fill="none" stroke="#0a9ae5" d="M0 0h119.715v119.715H0z"/></clipPath><clipPath id="clip-path-2"><rect id="長方形_124" width="582" height="129" class="cls-2" rx="12"/></clipPath><clipPath id="clip-path-3"><path id="長方形_123" d="M0 0h582v129H0z" class="cls-2"/></clipPath><clipPath id="clip-path-5"><path id="長方形_191" fill="#f2f9fb" d="M0 0h474v291H0z" transform="translate(-121 4519)"/></clipPath><clipPath id="clip-path-6"><path id="長方形_189" d="M0 0h943.155v274.362H0z" class="cls-2"/></clipPath><clipPath id="clip-path-8"><path id="長方形_178" d="M0 0h895.19v1.032H0z" class="cls-4"/></clipPath><clipPath id="clip-path-13"><path id="長方形_187" d="M0 0h886.5v185.476H0z" class="cls-2"/></clipPath><clipPath id="clip-path-14"><path id="長方形_180-2" d="M0 0h262.413v1.032H0z" class="cls-5"/></clipPath><filter id="長方形_176" width="719" height="500" x="17.574" y="0" filterUnits="userSpaceOnUse"><feOffset dx="20" dy="23"/><feGaussianBlur result="blur" stdDeviation="18"/><feFlood flood-color="#07334b" flood-opacity=".102"/><feComposite in2="blur" operator="in"/><feComposite in="SourceGraphic"/></filter><filter id="長方形_231" width="106" height="72" x="387.574" y="69" filterUnits="userSpaceOnUse"><feOffset dy="3"/><feGaussianBlur result="blur-2" stdDeviation="3"/><feFlood flood-color="#07334b" flood-opacity=".161"/><feComposite in2="blur-2" operator="in"/><feComposite in="SourceGraphic"/></filter><style>.cls-2{fill:none}.cls-4{fill:#aecbd6}.cls-5{fill:#039ede}.cls-10{clip-path:url(#clip-path-3)}.cls-13{fill:#fff}.cls-18{clip-path:url(#clip-path-6)}.cls-19{opacity:.33}.cls-20{clip-path:url(#clip-path-8)}.cls-21{fill:#c1c1c1}.cls-24{fill:#bcbfbf}.cls-26{fill:#31495a;opacity:.951}</style></defs><g id="img_analytics" transform="translate(137.574 -4417)"><g id="グループ_259" opacity=".999" transform="translate(421.919 4776.278)"><g id="グループ_170" clip-path="url(#clip-path)"><path id="パス_206" fill="none" stroke="#0a9ae5" stroke-dasharray="1.996 7.984" stroke-linecap="round" stroke-miterlimit="10" stroke-width="3" d="M118.185 59.858A58.328 58.328 0 1159.858 1.53a58.327 58.327 0 0158.327 58.328z"/></g></g><g id="グループ_258" transform="translate(-137.574 4761)"><g id="グループ_185" clip-path="url(#clip-path-2)"><g id="グループ_184"><g id="グループ_183" class="cls-10"><g id="グループ_182" opacity=".1"><g id="グループ_181"><g id="グループ_180" class="cls-10"><path id="パス_221" fill="#177bac" d="M582 129H0V1.464C0 .656 1.658 0 3.706 0h574.588C580.342 0 582 .656 582 1.464z"/></g></g></g></g></g></g></g><g filter="url(#長方形_176)" transform="translate(-137.57 4417)"><rect id="長方形_176-2" width="611" height="392" class="cls-13" rx="12" transform="translate(51.57 31)"/></g><rect id="長方形_190" width="517" height="320" fill="#f7fdff" rx="5" transform="translate(-28 4484)"/><g id="グループ_260" transform="translate(-69.82 -3.82)"><g id="楕円形_18" fill="#fff" stroke="#0a9ae5" transform="translate(530.82 4821.82)"><circle cx="20.5" cy="20.5" r="20.5" stroke="none"/><circle cx="20.5" cy="20.5" r="20" class="cls-2"/></g><path id="パス_237" fill="#018bc4" d="M398.461 338.772l-9.515 8.768a.355.355 0 00.157.6l5.822 2.038a.361.361 0 01.215.528L390 358.74c-.23.359.3.744.627.454l11.345-10.12a.355.355 0 00-.154-.6l-5.47-1.915a.364.364 0 01-.24-.481l3-6.9c.166-.366-.348-.678-.647-.406z" transform="translate(155.753 4492.809)"/></g><g id="マスクグループ_20" clip-path="url(#clip-path-5)" transform="translate(116 -17)"><g id="グループ_282" transform="translate(-170.828 4512.009)"><g id="グループ_281" class="cls-18"><g id="グループ_280"><g id="グループ_279" class="cls-18"><g id="グループ_263" class="cls-19" transform="translate(47.965 273.33)"><g id="グループ_262"><g id="グループ_261" class="cls-20"><path id="長方形_177" d="M0 0h895.19v1.032H0z" class="cls-4" transform="translate(.001)"/></g></g></g><path id="パス_238" d="M9.091 135.663A3.874 3.874 0 015.754 134a8.835 8.835 0 010-8.845 3.873 3.873 0 013.337-1.655 3.868 3.868 0 013.331 1.659 8.808 8.808 0 010 8.845 3.868 3.868 0 01-3.331 1.659m0-1.525c1.89 0 2.978-1.659 2.978-4.557s-1.088-4.573-2.978-4.573-2.968 1.643-2.968 4.573c0 2.9 1.071 4.557 2.968 4.557" class="cls-21" transform="translate(4.858 131.371)"/><path id="パス_239" d="M4.817 95.173h1.34V106.9H4.615V96.849l-2.5.737-.384-1.339z" class="cls-21" transform="translate(1.847 101.239)"/><path id="パス_240" d="M13.645 106.9h-1.909l-5.06-5.63v5.63H5.118V95.173h1.558v5.293l4.891-5.293h1.911l-5.176 5.7z" class="cls-21" transform="translate(5.444 101.239)"/><path id="パス_241" d="M.527 75.173V73.9l4.14-4.222a4.554 4.554 0 001.659-2.846 1.984 1.984 0 00-2.078-2.095 2.5 2.5 0 00-2.413 1.575l-1.308-.77a3.966 3.966 0 013.7-2.313 3.671 3.671 0 012.561.972 3.358 3.358 0 011.09 2.613c0 1.189-.7 2.481-2.093 3.87l-3 2.984H8.1v1.507z" class="cls-21" transform="translate(.561 67.258)"/><path id="パス_242" d="M13.646 75.061h-1.911l-5.058-5.63v5.63H5.119V63.333h1.558v5.3l4.891-5.3h1.911L8.3 69.031z" class="cls-21" transform="translate(5.445 67.369)"/><path id="パス_243" d="M8.962 8.041V9.5H7.54v2.229H5.982V9.5H0V8.041L4.205 0h1.676L1.675 8.041h4.307V4.725H7.54v3.316z" class="cls-21" transform="translate(-.001 .001)"/><path id="パス_244" d="M13.645 11.726h-1.909L6.676 6.1v5.63H5.118V0h1.558v5.294L11.567 0h1.911L8.3 5.7z" class="cls-21" transform="translate(5.444)"/><path id="パス_245" d="M5.222 36.3a3.447 3.447 0 013.05 3.451A3.314 3.314 0 017.1 42.45a4.3 4.3 0 01-2.848.989A3.874 3.874 0 01.4 41.059l1.3-.769a2.355 2.355 0 002.55 1.624 2.187 2.187 0 100-4.338h-.4l-.619-.956 2.714-3.669H.731v-1.457h7.036v1.374z" class="cls-21" transform="translate(.422 33.501)"/><path id="パス_246" d="M13.645 43.221h-1.909l-5.06-5.63v5.63H5.118V31.495h1.558v5.293l4.891-5.293h1.911L8.3 37.19z" class="cls-21" transform="translate(5.444 33.502)"/><g id="グループ_266" class="cls-19" transform="translate(47.965 207.182)"><g id="グループ_265"><g id="グループ_264" class="cls-20"><path id="長方形_179" d="M0 0h895.19v1.032H0z" class="cls-4" transform="translate(.001 .001)"/></g></g></g><g id="グループ_269" class="cls-19" transform="translate(47.965 142.534)"><g id="グループ_268"><g id="グループ_267" class="cls-20"><path id="長方形_181" d="M0 0h895.19v1.032H0z" class="cls-4" transform="translate(.001)"/></g></g></g><g id="グループ_272" class="cls-19" transform="translate(47.965 76.322)"><g id="グループ_271"><g id="グループ_270" class="cls-20"><path id="長方形_183" d="M0 0h895.19v1.032H0z" class="cls-4" transform="translate(.001 -.001)"/></g></g></g><g id="グループ_275" class="cls-19" transform="translate(47.965 10.63)"><g id="グループ_274"><g id="グループ_273" class="cls-20"><path id="長方形_185" d="M0 0h895.19v1.032H0z" class="cls-4" transform="translate(.001 .002)"/></g></g></g><g id="グループ_278" opacity=".14" transform="translate(46.342 90.158)"><g id="グループ_277"><g id="グループ_276" clip-path="url(#clip-path-13)"><path id="パス_248" d="M399.991 223.348c-7.923 0-16.072-5.446-24.27-16.233-12.116-15.949-15.814-32.636-20.495-53.762-4.482-20.231-10.061-45.408-24.913-79.442-9.468-21.7-21.867-32.708-35.812-31.866-23.467 1.436-47.877 35.544-57.036 66.32-7.421 24.938-20.966 25.021-34.066 25.1-14.56.087-29.619.177-41.937 31.429-13.962 35.425-26.662 52.145-39.962 52.622-11.417.423-22.823-11.522-34.786-36.477-8.02-16.745-18.214-26.789-30.286-29.856-16.285-4.132-30.556 6.01-30.7 6.113a2.063 2.063 0 11-2.419-3.343c.644-.466 16-11.371 34.136-6.769 13.313 3.378 24.416 14.17 33 32.07 11.02 22.992 21.479 34.539 30.915 34.136 11.3-.4 23.161-16.764 36.268-50.013 13.338-33.845 30.56-33.951 45.753-34.041 13.175-.08 23.584-.142 30.133-22.15 9.766-32.815 35.156-67.7 60.74-69.261 11.06-.675 26.932 4.732 39.847 34.334 15.012 34.4 20.637 59.795 25.161 80.2 4.749 21.44 8.185 36.931 19.752 52.159 8.156 10.736 15.911 15.594 23.087 14.434 10.523-1.7 20.877-16.628 29.935-43.161 8.593-25.169 21.405-40.133 36.076-42.137 14.277-1.944 29.035 8.034 43.861 29.677 13.883 20.272 27.283 29.914 39.824 28.715 14.351-1.393 27.951-16.774 40.424-45.712 16.355-37.944 34.374-58.1 53.552-59.921 16.745-1.581 34.155 10.818 51.8 36.852 25.892 38.2 38.8 56.588 49.336 57.176 6.637.361 13.346-6.049 25-19.678 3.661-4.284 7.427-8.915 11.07-13.394 17.715-21.787 34.438-42.358 50.63-40.243 8.379 1.1 15.377 8.154 21.389 21.562 6.709 14.958 11.381 28.228 15.5 39.937 10.121 28.738 15.695 44.566 36.516 45.765a2.064 2.064 0 01-.239 4.121c-23.564-1.358-30.17-20.117-40.169-48.516-4.1-11.631-8.74-24.816-15.379-39.618-5.3-11.827-11.415-18.272-18.159-19.158-13.87-1.835-30.671 18.8-46.89 38.753-3.659 4.5-7.442 9.151-11.138 13.472-11.185 13.086-19.129 21.607-28.368 21.116-12.508-.7-25.138-18.588-52.52-58.982-16.737-24.693-32.919-36.489-47.994-35.057-17.567 1.663-34.438 20.99-50.158 57.446-13.113 30.424-27.854 46.636-43.815 48.186-14.128 1.374-28.83-8.886-43.63-30.492-13.674-19.96-27.458-29.631-39.9-27.918-13.041 1.781-24.664 15.767-32.727 39.382-9.72 28.467-20.885 43.91-33.183 45.9a17.527 17.527 0 01-2.763.221" class="cls-5" transform="translate(-22.456 -37.872)"/></g></g></g><path id="パス_249" d="M399.991 227.184c-7.956 0-16.122-5.921-24.317-17.645-12.089-17.3-15.781-35.414-20.454-58.348-4.487-22.008-10.069-49.4-24.93-86.423-9.433-23.5-21.762-35.5-35.564-34.708-10.744.615-22.711 8.952-33.695 23.475-10.176 13.454-18.759 31.212-23.553 48.725-7.4 27.027-20.959 27.115-34.076 27.2-14.543.095-29.58.194-41.919 34.231-13.974 38.542-26.7 56.7-40.051 57.153-11.586.419-22.652-12.2-34.741-39.618-8.2-18.607-18.64-29.606-31.02-32.694-15.918-3.975-29.736 6.713-29.875 6.823a2.064 2.064 0 11-2.555-3.242c.627-.5 15.569-12.04 33.43-7.586 13.681 3.413 25.052 15.2 33.8 35.034 11.01 24.975 21.339 37.465 30.824 37.158 11.291-.38 23.168-18.186 36.309-54.435 13.317-36.739 30.56-36.85 45.774-36.951 13.156-.087 23.549-.153 30.12-24.164 9.8-35.822 35.3-73.758 60.994-75.231 19.882-1.125 32.549 19.649 39.63 37.292 15 37.374 20.623 64.966 25.145 87.137 4.757 23.343 8.193 40.21 19.791 56.809 8.059 11.528 15.705 16.822 22.755 15.742 10.608-1.634 21.052-17.9 30.2-47.043 8.67-27.6 21.63-43.869 36.5-45.8 14.213-1.826 28.835 9.031 43.5 32.31 13.792 21.89 27.078 32.4 39.51 31.257 14.423-1.337 28.108-18.085 40.674-49.775 16.442-41.469 34.58-63.382 53.909-65.125 16.7-1.5 33.988 11.984 51.509 40.084 25.927 41.588 38.856 61.6 49.356 62.178 6.478.324 13.255-6.614 24.882-21.395 3.663-4.66 7.43-9.693 11.072-14.566 17.622-23.562 34.248-45.821 50.446-43.782 8.507 1.073 15.589 8.736 21.649 23.425 6.7 16.252 11.375 30.673 15.5 43.4 9.8 30.261 15.717 48.525 36.51 49.827a2.064 2.064 0 01-.258 4.119c-23.595-1.476-30.19-21.845-40.177-52.675-4.1-12.651-8.744-26.992-15.387-43.093-5.368-13.014-11.54-20.045-18.351-20.9-13.775-1.758-30.479 20.575-46.624 42.158-3.655 4.891-7.438 9.947-11.132 14.644-11.167 14.2-19.162 23.446-28.354 22.963-12.574-.685-25.223-20.15-52.631-64.114-16.639-26.674-32.693-39.515-47.641-38.159-17.653 1.593-34.625 22.633-50.446 62.535-13.183 33.256-28.029 50.874-44.129 52.364-14.1 1.28-28.694-9.852-43.382-33.166-13.54-21.492-27.192-31.994-39.475-30.415-13.177 1.709-24.928 16.958-33.088 42.94-9.794 31.186-21.07 47.965-33.517 49.886a15.986 15.986 0 01-2.448.188" class="cls-5" transform="translate(23.886 39.545)"/></g></g></g></g></g><path id="パス_12029" d="M-2.151.108a7.544 7.544 0 01-.072-1.17v-4.554A13.561 13.561 0 01-2.151-7.1a6.545 6.545 0 01-.918.045H-3.9a5 5 0 01-.9-.054v1.143a8 8 0 01.927-.054h.432v4.959A7.47 7.47 0 01-3.51.108zm8.118-2.754a5.925 5.925 0 01-.909.063h-.315v-2.952a12.667 12.667 0 01.063-1.521H3.591a8.566 8.566 0 01-.747.99L.711-3.456c-.315.378-.414.5-.72.828v1.107c.306-.027.594-.036 1.125-.036h2.493v.621A5.741 5.741 0 013.537.108h1.278a5.593 5.593 0 01-.072-1.026v-.639h.324a6.946 6.946 0 01.9.063zm-2.349.072H1.323l1.728-2.142c.324-.4.432-.54.612-.8a10.185 10.185 0 00-.045 1.08z" class="cls-24" transform="translate(463 4787)"/><path id="パス_12028" d="M-2.151.108a7.544 7.544 0 01-.072-1.17v-4.554A13.561 13.561 0 01-2.151-7.1a6.545 6.545 0 01-.918.045H-3.9a5 5 0 01-.9-.054v1.143a8 8 0 01.927-.054h.432v4.959A7.47 7.47 0 01-3.51.108zm2.3-1.7a2.377 2.377 0 00.5 1.008A2.811 2.811 0 002.934.27a3.108 3.108 0 002.214-.729 1.906 1.906 0 00.54-1.314 1.729 1.729 0 00-.432-1.242 1.893 1.893 0 00-1.287-.6 2.222 2.222 0 00.873-.351 1.641 1.641 0 00.621-1.323c0-1.17-.972-1.926-2.475-1.926a2.922 2.922 0 00-1.764.5 2.236 2.236 0 00-.855 1.279l1.287.216a1.322 1.322 0 01.378-.693 1.5 1.5 0 01.981-.279c.765 0 1.188.351 1.188.972 0 .693-.531 1.107-1.431 1.107a6.17 6.17 0 01-.872-.045v1.116a7.685 7.685 0 01.963-.045 2.331 2.331 0 011.037.216 1.049 1.049 0 01.5.945c0 .711-.567 1.17-1.458 1.17a1.7 1.7 0 01-1.089-.351 1.169 1.169 0 01-.423-.738z" class="cls-24" transform="translate(361 4787)"/><path id="パス_12027" d="M-2.151.108a7.544 7.544 0 01-.072-1.17v-4.554A13.561 13.561 0 01-2.151-7.1a6.545 6.545 0 01-.918.045H-3.9a5 5 0 01-.9-.054v1.143a8 8 0 01.927-.054h.432v4.959A7.47 7.47 0 01-3.51.108zm6.462 0c.576 0 .936.018 1.359.054v-1.188a9.456 9.456 0 01-1.314.072h-2.52a2.17 2.17 0 01.513-.81 7.874 7.874 0 011.071-.9 11.267 11.267 0 001.512-1.107 1.827 1.827 0 00.639-1.44C5.571-6.444 4.6-7.2 3.024-7.2a2.617 2.617 0 00-2.061.8 2.7 2.7 0 00-.621 1.44l1.287.153a1.71 1.71 0 01.279-.828 1.272 1.272 0 011.143-.531c.765 0 1.242.378 1.242.99 0 .459-.252.756-1.08 1.323a12.394 12.394 0 00-1.485 1.09A4.442 4.442 0 00.5-1 4.6 4.6 0 00.261.153 8.294 8.294 0 011.422.108z" class="cls-24" transform="translate(259 4787)"/><path id="パス_12026" d="M-2.151.108a7.544 7.544 0 01-.072-1.17v-4.554A13.561 13.561 0 01-2.151-7.1a6.545 6.545 0 01-.918.045H-3.9a5 5 0 01-.9-.054v1.143a8 8 0 01.927-.054h.432v4.959A7.47 7.47 0 01-3.51.108zm5.958 0a7.544 7.544 0 01-.072-1.17v-4.554A13.561 13.561 0 013.807-7.1a6.545 6.545 0 01-.918.045h-.828a5 5 0 01-.9-.054v1.143a8 8 0 01.927-.054h.432v4.959A7.47 7.47 0 012.448.108z" class="cls-24" transform="translate(157 4787)"/><path id="パス_12025" d="M-2.151.108a7.544 7.544 0 01-.072-1.17v-4.554A13.561 13.561 0 01-2.151-7.1a6.545 6.545 0 01-.918.045H-3.9a5 5 0 01-.9-.054v1.143a8 8 0 01.927-.054h.432v4.959A7.47 7.47 0 01-3.51.108zM2.97.252A2.555 2.555 0 005.157-.81a4.727 4.727 0 00.666-2.664 6.053 6.053 0 00-.351-2.088 2.521 2.521 0 00-.594-.909 2.614 2.614 0 00-1.9-.729A2.559 2.559 0 00.684-5.949a5.3 5.3 0 00-.549 2.493 6.023 6.023 0 00.351 2.07 2.521 2.521 0 00.594.909 2.593 2.593 0 001.89.729zm.009-1.044a1.319 1.319 0 01-1.152-.585 4.048 4.048 0 01-.459-2.142 3.358 3.358 0 01.594-2.187 1.21 1.21 0 011.008-.459 1.3 1.3 0 01.981.378 3.49 3.49 0 01.63 2.3 3.468 3.468 0 01-.63 2.313 1.308 1.308 0 01-.972.382z" class="cls-24" transform="translate(55 4787)"/><g id="グループ_527" class="cls-19" transform="rotate(90 -2123.072 2382.928)"><g id="グループ_265-2"><g id="グループ_264-2" clip-path="url(#clip-path-14)"><path id="長方形_179-2" d="M0 0h262.413v1.032H0z" class="cls-5" transform="translate(0 .001)"/></g></g></g><g id="グループ_434" transform="translate(93 10)"><g filter="url(#長方形_231)" transform="translate(-230.57 4407)"><rect id="長方形_231-2" width="88" height="54" class="cls-13" rx="8" transform="translate(396.57 75)"/></g><path id="パス_12024" d="M-22.853-2.816a2.247 2.247 0 01-.362 1.016A2.1 2.1 0 01-25-.99c-1.54 0-2.508-1.254-2.508-3.267S-26.56-7.5-25-7.5a1.992 1.992 0 011.606.682 2.292 2.292 0 01.473.946l1.529-.352a3.912 3.912 0 00-.341-.847 3.377 3.377 0 00-1.166-1.2 3.887 3.887 0 00-2.11-.529 3.822 3.822 0 00-2.75 1.045A4.981 4.981 0 00-29.045-4.2a4.967 4.967 0 001.2 3.454A3.783 3.783 0 00-25.02.308a3.745 3.745 0 003-1.2 4.2 4.2 0 00.737-1.65zm3.895 2.948a8.865 8.865 0 01-.088-1.43v-1.837h2.1a3.117 3.117 0 002.346-.792 2.824 2.824 0 00.737-2.024 2.572 2.572 0 00-.682-1.892 3.124 3.124 0 00-2.343-.781h-2.3c-.583 0-.924-.011-1.4-.033a9.931 9.931 0 01.088 1.419v5.951a8.894 8.894 0 01-.087 1.419zm-.089-4.532v-2.959h2.1a1.5 1.5 0 011.2.4 1.484 1.484 0 01.363 1.056A1.384 1.384 0 01-16.945-4.4zM-5.99.132a11.544 11.544 0 01-.561-1.3l-2.442-6.345a7.284 7.284 0 01-.374-1.111h-1.914a6.515 6.515 0 01-.352 1.111l-2.42 6.347a12.024 12.024 0 01-.583 1.3h1.8a5.486 5.486 0 01.33-1.155l.44-1.2h3.52l.44 1.2A7.4 7.4 0 01-7.793.132zm-2.947-3.619h-2.728l1.144-3.256.209-.616c.121.363.154.495.2.616zm6.3 1.892a3.115 3.115 0 00.9 1.221A3.178 3.178 0 00.39.264a3.047 3.047 0 002.344-.836A5.546 5.546 0 003.9-4.389a7.047 7.047 0 00-.32-2.277A3.119 3.119 0 00.556-8.833a3.6 3.6 0 00-1.925.484 2.9 2.9 0 00-1.4 2.585A2.747 2.747 0 00.226-2.871a2.99 2.99 0 001.782-.506A2.148 2.148 0 002.59-4a3.614 3.614 0 01-.858 2.618A1.662 1.662 0 01.49-.935a1.657 1.657 0 01-1.266-.451 1.826 1.826 0 01-.341-.6zM.445-4.059A1.643 1.643 0 01-1.3-5.819 1.724 1.724 0 01.49-7.623a1.737 1.737 0 011.848 1.771A1.8 1.8 0 01.445-4.059zM7.881.308a3.122 3.122 0 002.673-1.3 5.777 5.777 0 00.814-3.256 7.4 7.4 0 00-.429-2.552 3.082 3.082 0 00-.726-1.111A3.2 3.2 0 007.892-8.8a3.128 3.128 0 00-2.805 1.529 6.477 6.477 0 00-.671 3.047 7.362 7.362 0 00.429 2.53 3.082 3.082 0 00.726 1.111 3.169 3.169 0 002.31.891zm.011-1.276a1.612 1.612 0 01-1.408-.715A4.948 4.948 0 015.923-4.3a4.1 4.1 0 01.726-2.673 1.479 1.479 0 011.232-.561 1.59 1.59 0 011.2.462 4.266 4.266 0 01.77 2.816A4.239 4.239 0 019.08-1.43a1.6 1.6 0 01-1.188.462zM15.163.308a3.122 3.122 0 002.673-1.3 5.777 5.777 0 00.814-3.256 7.4 7.4 0 00-.428-2.552 3.082 3.082 0 00-.722-1.109 3.2 3.2 0 00-2.326-.891 3.128 3.128 0 00-2.805 1.529 6.477 6.477 0 00-.669 3.047 7.362 7.362 0 00.429 2.53 3.082 3.082 0 00.726 1.111 3.169 3.169 0 002.308.891zm.011-1.276a1.612 1.612 0 01-1.408-.715 4.948 4.948 0 01-.561-2.617 4.1 4.1 0 01.726-2.673 1.479 1.479 0 011.232-.561 1.59 1.59 0 011.2.462 4.266 4.266 0 01.77 2.816 4.239 4.239 0 01-.77 2.827 1.6 1.6 0 01-1.189.461zm5.6-2.442h6.545v2.684c0 .264-.066.3-.495.3-.4 0-.946-.044-1.672-.121a4.233 4.233 0 01.341 1.185c.429.022 1.034.044 1.463.044a2.706 2.706 0 001.155-.154c.319-.165.451-.473.451-1.034v-7.051a10.825 10.825 0 01.044-1.2 10.084 10.084 0 01-1.2.044h-6.687a11.817 11.817 0 01-1.219-.043 9.477 9.477 0 01.042 1.056v7.194a10.449 10.449 0 01-.066 1.32h1.353a8.086 8.086 0 01-.055-1.276zm2.607-1.155h-2.607v-2.981h2.607zm1.188 0v-2.981h2.75v2.981z" class="cls-26" transform="translate(208 4504)"/><path id="パス_12023" d="M-15.774-2.816a2.247 2.247 0 01-.363 1.016 2.1 2.1 0 01-1.782.814c-1.54 0-2.508-1.254-2.508-3.267s.946-3.247 2.508-3.247a1.992 1.992 0 011.606.682 2.292 2.292 0 01.473.946l1.529-.352a3.912 3.912 0 00-.341-.847 3.377 3.377 0 00-1.166-1.2A3.887 3.887 0 00-17.93-8.8a3.822 3.822 0 00-2.75 1.045A4.981 4.981 0 00-21.967-4.2a4.967 4.967 0 001.2 3.454A3.783 3.783 0 00-17.941.308a3.745 3.745 0 003-1.2 4.2 4.2 0 00.737-1.65zM-9.02.132a6.606 6.606 0 01.341-1.1l2.354-6.347a8.647 8.647 0 01.55-1.309H-7.59a6.374 6.374 0 01-.3 1.155l-1.823 5.434c-.066.2-.154.506-.253.836-.077-.264-.209-.7-.264-.836l-1.826-5.434a7.15 7.15 0 01-.3-1.155h-1.815a10.881 10.881 0 01.55 1.309l2.354 6.347a8.165 8.165 0 01.352 1.1zm6.369-2.079a2.905 2.905 0 00.616 1.232A3.436 3.436 0 00.759.33a3.8 3.8 0 002.706-.891 2.329 2.329 0 00.66-1.606A2.113 2.113 0 003.6-3.685a2.314 2.314 0 00-1.573-.737 2.715 2.715 0 001.067-.429 2.006 2.006 0 00.756-1.617C3.85-7.9 2.662-8.822.825-8.822a3.572 3.572 0 00-2.156.6 2.733 2.733 0 00-1.045 1.578L-.8-6.38a1.616 1.616 0 01.462-.847 1.834 1.834 0 011.2-.341c.935 0 1.452.429 1.452 1.188 0 .847-.649 1.353-1.749 1.353a7.541 7.541 0 01-1.071-.055v1.364a9.393 9.393 0 011.177-.055 2.85 2.85 0 011.265.264 1.282 1.282 0 01.616 1.155c0 .869-.693 1.43-1.782 1.43a2.077 2.077 0 01-1.331-.429 1.429 1.429 0 01-.517-.9zM8.085.308a3.122 3.122 0 002.673-1.3 5.777 5.777 0 00.814-3.256 7.4 7.4 0 00-.429-2.552 3.082 3.082 0 00-.726-1.111A3.2 3.2 0 008.1-8.8a3.128 3.128 0 00-2.809 1.529 6.477 6.477 0 00-.671 3.047 7.362 7.362 0 00.429 2.53 3.082 3.082 0 00.726 1.111 3.169 3.169 0 002.31.891zM8.1-.968a1.612 1.612 0 01-1.408-.715A4.948 4.948 0 016.127-4.3a4.1 4.1 0 01.726-2.673 1.479 1.479 0 011.232-.561 1.59 1.59 0 011.2.462 4.266 4.266 0 01.77 2.816 4.239 4.239 0 01-.77 2.827A1.6 1.6 0 018.1-.968zm9.8-6.006h-1.092c.088-.275.132-.418.242-.759s.121-.407.2-.66L16.038-8.7a5.965 5.965 0 01-.338 1.4 8.686 8.686 0 01-1.188 2.266 4.113 4.113 0 01.979.792 8 8 0 00.891-1.606H17.9V-3.8h-1.884a9.071 9.071 0 01-1.232-.066V-2.6a9.415 9.415 0 011.232-.066H17.9v2.292a8.184 8.184 0 01-.08 1.265h1.364a6.8 6.8 0 01-.077-1.265v-2.288h1.738a10.158 10.158 0 011.21.066v-1.265a9.415 9.415 0 01-1.232.066h-1.716v-2.057h1.386c.352 0 .682.022 1.177.066V-7.04a7.95 7.95 0 01-1.188.066h-1.375v-1.012a5.82 5.82 0 01.077-1.166H17.82A6.893 6.893 0 0117.9-8zm-4.84 6.6a9.4 9.4 0 01-.069 1.287h1.32a14.87 14.87 0 01-.055-1.276V-6.6a13.25 13.25 0 00.77-1.925c.1-.275.121-.33.176-.495l-1.243-.352a6.8 6.8 0 01-.4 1.43 9.473 9.473 0 01-1.892 3.124 4.579 4.579 0 01.5 1.353 5.969 5.969 0 00.924-1.276c-.022.484-.033.836-.033 1.21z" class="cls-26" transform="translate(200 4523)"/></g></g></svg>